<?xml version="1.0" standalone="no"?>
<!DOCTYPE svg PUBLIC "-//W3C//DTD SVG 1.1//EN" "http://www.w3.org/Graphics/SVG/1.1/DTD/svg11.dtd" >
<svg xmlns="http://www.w3.org/2000/svg">
<metadata>
This is a custom SVG webfont generated by Font Squirrel.
</metadata>
<defs>
<font id="webfont5rPLfEdw" horiz-adv-x="697" >
<font-face units-per-em="1000" ascent="800" descent="-200" />
<missing-glyph horiz-adv-x="290" />
<glyph unicode=" "  horiz-adv-x="290" />
<glyph unicode="&#x09;" horiz-adv-x="290" />
<glyph unicode="&#xa0;" horiz-adv-x="290" />
<glyph unicode="!" horiz-adv-x="277" d="M50 66q0 36 25.5 62.5t67.5 26.5q40 0 66 -25.5t26 -58.5q0 -36 -27.5 -59.5t-64.5 -23.5q-39 0 -66 23t-27 55zM187 217h-86l-2 50q0 51 -5.5 85t-24.5 112l-13 53l-2 8q-3 12 -5 26.5t-2 36.5q0 20 3 42.5t15.5 46t34.5 36t44 12.5t47 -14q18 -12 30.5 -34.5t16 -48.5 t3.5 -36q0 -24 -8 -67l-15 -61q-13 -55 -21 -104t-8 -93z" />
<glyph unicode="&#x22;" horiz-adv-x="396" d="M34 474v246h123v-246h-123zM220 474v246h123v-246h-123z" />
<glyph unicode="#" horiz-adv-x="586" d="M34 208l14 66h115l37 172h-115l14 66h115l43 204h66l-43 -204h91l43 204h66l-43 -204h115l-14 -66h-115l-37 -172h116l-14 -66h-116l-43 -204h-66l43 204h-91l-43 -204h-66l43 204h-115zM229 274h91l37 172h-91z" />
<glyph unicode="$" horiz-adv-x="723" d="M25 0v277h94l6 -26q15 -47 42.5 -79.5t59.5 -52t85 -38.5l16 -5v217l-37 6l-89 23q-82 26 -122 63t-48 74t-8 60q0 89 73.5 153t197.5 64l35 -1v49h70v-56h8l5 -1q37 0 80.5 -23.5t50.5 -28.5t22 -18l26 63h86v-258h-89q-4 18 -16 52.5t-53 72.5t-98 52l-24 4l1 -201 l50 -7q140 -27 199.5 -82t59.5 -150q0 -90 -66 -147t-193 -70l-52 -3v-66h-71v71l-26 4q-82 17 -149 69l-15 12l-25 -73h-86zM398 71q40 0 63.5 8.5t34 15t30.5 22.5t20 54q0 23 -12.5 43.5t-38.5 35t-63 23.5l-23 5l-11 2v-209zM329 644l-19 -1q-32 0 -54.5 -9.5 t-42.5 -29.5t-20 -52q0 -41 34 -63l24 -11l12 -3l30 -8l8 -2l27 -9z" />
<glyph unicode="%" horiz-adv-x="826" d="M30 523q0 84 53.5 134.5t146.5 50.5q92 0 146.5 -50.5t54.5 -133.5q0 -17 -6.5 -60.5t-59.5 -84.5t-135 -41q-93 0 -146.5 50.5t-53.5 134.5zM146 523v-18q4 -43 22 -79t63 -36q21 0 40 14t31 39t12 62v37q0 56 -24 85t-60 29q-35 0 -59.5 -29.5t-24.5 -84.5v-19zM61 0 l637 689h69l-636 -689h-70zM395 173q0 79 53 130t141 51q11 0 24 -1.5t55 -8t85.5 -53.5t43.5 -116q0 -18 -6 -55.5t-47.5 -75.5t-80.5 -44t-50 -6h-17h-15h-12q-8 2 -48.5 8t-83 52.5t-42.5 118.5zM509 173q0 -36 8.5 -60t26.5 -45.5t51 -21.5q34 0 47 16t19 24.5 t13.5 29.5t7.5 57q0 37 -6.5 55.5t-11 26.5t-20.5 27t-49 19q-32 0 -50 -21t-27 -45.5t-9 -61.5z" />
<glyph unicode="&#x26;" horiz-adv-x="892" d="M204 420l-7 12l-7 15q-30 59 -30 110q0 58 49 112.5t142 54.5l34 -3q59 -11 93.5 -50.5t34.5 -89.5q0 -30 -13.5 -58t-36 -52t-63.5 -49l-17 -10l38 -50q63 -78 135 -150l9 9q34 43 44 85l2 7l1 9v6v7q0 18 -24 24l-6 1l-8 1h-11h-40v79h298v-75h-33h-8 q-31 -3 -44.5 -12.5t-29.5 -39.5l-10 -20l-5 -11q-21 -42 -30 -57.5t-29 -44.5l-11 -14l-9 -12l10 -10l11 -10l15 -11q25 -18 41 -25t30 -7q37 0 58 24t21 77v9v55h75v-59v-28q0 -77 -48 -125t-126 -48q-45 0 -78.5 12.5t-43.5 16.5t-21 11q-28 14 -44 26l-24 -14 q-39 -21 -74.5 -33t-66.5 -16.5t-64 -4.5q-48 0 -92 11.5t-84 37t-64.5 69.5t-24.5 93q0 87 42.5 122t66.5 50t63 36zM336 479l16 9q37 22 52.5 46.5t15.5 44.5q0 17 -10 34t-26 24.5t-31 7.5q-8 0 -35 -5.5t-27 -59.5q0 -32 22 -67l8 -13l8 -11zM252 351l-12 -8 q-74 -50 -74 -118q0 -36 21.5 -70t56.5 -52.5t79 -18.5q25 0 58.5 9t62.5 28z" />
<glyph unicode="'" horiz-adv-x="216" d="M34 474l22 246h126l-22 -246h-126z" />
<glyph unicode="(" horiz-adv-x="413" d="M413 839v-78l-40 -12q-84 -32 -122 -102t-38 -219q0 -245 44 -351t153 -125v-81q-44 0 -136 24t-168.5 126t-76.5 269q0 38 0.5 78t10.5 127.5t61 172.5t136.5 128t175.5 43z" />
<glyph unicode=")" horiz-adv-x="413" d="M0 -129v78l40 12q84 32 122 102t38 219q0 245 -44 351t-153 125v81q44 0 136 -24t168.5 -126.5t76.5 -268.5v-57v-24q0 -40 -10 -126.5t-61 -171t-136.5 -127.5t-176.5 -43z" />
<glyph unicode="*" horiz-adv-x="515" d="M14 503q30 66 45 137l170 -101l-43 194l36 -3q28 0 55 1l54 2l-41 -194l174 93q15 -75 37 -138l-195 -11l138 -141q-67 -38 -120 -76l-66 183l-81 -178l-28 22l-28 21l-29 22l-28 21l148 125z" />
<glyph unicode="+" horiz-adv-x="698" d="M101 217v156h171v170h154v-170h171v-156h-170v-171h-156v171h-170z" />
<glyph unicode="," horiz-adv-x="246" d="M30 -84l7 5l17 10q34 21 48 35t22 35l-16 -3q-37 0 -57 22.5t-20 51.5q0 33 26 58t61 25q39 0 69.5 -29t30.5 -73q0 -43 -35 -91t-103 -88l-18 -10z" />
<glyph unicode="-" horiz-adv-x="305" d="M8 189v129h289v-129h-289z" />
<glyph unicode="." horiz-adv-x="245" d="M30 66q0 36 26 62t66 26t66.5 -25t26.5 -59q0 -35 -28 -59t-66 -24q-39 0 -65 23t-26 56z" />
<glyph unicode="/" horiz-adv-x="681" d="M14 0l573 731h80l-572 -731h-81z" />
<glyph unicode="0" d="M22 347q0 152 93.5 248.5t230.5 96.5q13 0 30.5 -2t86.5 -15t141 -104t72 -226q0 -141 -69 -234t-149.5 -110t-119.5 -17q-139 0 -227.5 100.5t-88.5 262.5zM203 346l2 -41q0 -23 2.5 -42t11.5 -65t32.5 -81t55.5 -45t53 -10q63 0 99 61t36 185q0 13 -1 40t-1 39 q0 63 -13.5 105t-42.5 81t-89 39q-62 0 -90 -40t-40.5 -80.5t-12.5 -104.5z" />
<glyph unicode="1" d="M149 516v81h43q19 0 59 7t76 63l8 13h112v-540q0 -32 4.5 -40.5t22.5 -11.5h7h73v-88h-403v88h74h11q27 0 34.5 9.5t7.5 42.5v41v335h-129z" />
<glyph unicode="2" horiz-adv-x="696" d="M32 0l2 33q12 94 58.5 152t156.5 113l49 25l35 17l19 10q59 37 81.5 69t22.5 72q0 50 -41 82t-114 32q-20 0 -55.5 -5t-64.5 -23.5t-44 -50.5q15 5 39 5q18 -2 44.5 -12.5t26.5 -59.5q0 -15 -5 -28.5t-24.5 -35t-65.5 -21.5q-6 0 -15 1.5t-28.5 6t-40.5 33.5t-21 68 q0 23 3.5 35.5t23 53t91.5 78.5t172 38q27 0 41 -1t52.5 -7t76.5 -21.5t69 -40t49.5 -63t18.5 -80.5q0 -49 -23.5 -90t-56.5 -61t-58 -30.5t-59 -22.5l-8 -3l-100 -30l-42 -14q-74 -26 -107 -50t-53 -64l27 14q63 31 122 31q42 0 101 -15l30 -8l25 -7l22 -5q7 -1 21 -1 q45 0 70 21t25 58l2 34h75v-35q0 -99 -44 -151t-131 -52q-70 0 -162 34l-27 10q-62 21 -100 21q-30 0 -49 -11.5t-32 -35.5l-5 -12h-75z" />
<glyph unicode="3" d="M141 129q16 -19 40 -32t55 -19l26 -5q8 -1 15.5 -1.5t17.5 -0.5q64 0 106.5 27t51 58t8.5 46q0 53 -45 87.5t-126 34.5h-16v73l18 -1q73 0 109 24.5t40 51.5t4 38q0 50 -42 81t-118 31q-47 0 -80 -13.5t-53 -37.5q5 1 11 1q15 0 32 -7l19 -10q28 -20 28 -54 q0 -33 -22.5 -52.5t-39.5 -22.5t-28 -3q-40 0 -65.5 26.5t-25.5 67.5q0 8 1.5 19t14.5 48.5t79 76t174 38.5q46 0 93 -6.5t82.5 -20t64.5 -35.5t45 -54.5t16 -67.5q0 -63 -39.5 -96.5t-81.5 -47.5l-22 -5l15 -5q48 -16 82 -40t50.5 -57t16.5 -72q0 -41 -16.5 -75.5 t-44.5 -56t-51.5 -32.5t-57 -20t-58 -12t-56 -4t-32.5 -1q-95 0 -162.5 26t-102.5 70t-35 93q0 34 16.5 61.5t41.5 37.5t43 10q34 0 58.5 -19.5t27.5 -37t3 -20.5v-7q0 -62 -69 -75z" />
<glyph unicode="4" d="M23 205v94l374 382h145v-392h106v-84h-107v-65v-12q3 -27 9.5 -33.5t30.5 -6.5h64v-88h-399v88h73h11q25 0 33 10.5t8 41.5v65h-348zM139 290h232v241z" />
<glyph unicode="5" d="M140 107q62 -40 136 -40q79 0 128.5 38.5t52.5 71.5t3 45q0 69 -49 109.5t-134 40.5q-14 0 -21 -1.5t-40 -12t-53 -44.5h-83l18 369q45 -6 98 -11t95 -5h51q93 0 150 3.5t116 15.5q-12 -76 -93 -102.5t-302 -26.5l-34 1l-8 -157q40 24 81.5 37.5t90.5 13.5h43 q23 0 84 -10t112 -73.5t51 -160.5q-7 -81 -75 -138.5t-133 -64t-85 -7.5t-36 -1q-109 0 -173.5 35t-76 73t-11.5 54q0 41 25.5 69.5t66.5 28.5q16 0 23 -2q55 -9 62 -37t7 -40q0 -29 -18 -49t-49 -23z" />
<glyph unicode="6" d="M519 589l-21 7q-51 15 -86 15q-15 0 -55 -4.5t-79 -46t-47 -89t-8.5 -67t-0.5 -31.5v-20l18 13q73 50 163 50q9 0 20.5 -1t67 -7t112.5 -62t57 -139q0 -7 -1 -15.5t-6.5 -51.5t-82.5 -98.5t-194 -55.5q-43 0 -125.5 16t-146.5 97.5t-64 212.5q0 20 1 31.5t10 84.5t78 149 t150 92.5t128 16.5q81 0 141.5 -31t77.5 -66.5t17 -57.5q0 -33 -20.5 -57t-54.5 -29l-22 -2q-41 0 -64.5 20.5t-23.5 52.5q0 9 5.5 31.5t42.5 37.5zM229 201q0 -57 28.5 -93.5t62 -43t48.5 -6.5q50 0 83 32t38 69.5t5 44.5q0 53 -29 88t-60.5 41t-46.5 6q-57 0 -93 -38 t-36 -100z" />
<glyph unicode="7" d="M51 389v294h84v-84l22 26q58 58 133 58q19 0 36 -3t24 -4t18 -6l22 -7l28 -10q62 -22 99 -22q27 0 42 11.5t21 34.5h67q-10 -60 -29.5 -107t-61.5 -112l-14 -20l-46 -66l-24 -38q-103 -171 -103 -334h-182l3 30q10 92 37.5 160t87.5 147l36 43l10 11l60 63l62 67l15 18 l19 22l-22 -9q-49 -17 -93 -17q-32 0 -67 7l-24 5l-26 5q-25 5 -40 5q-35 0 -59.5 -16t-37 -39.5t-17.5 -69.5l-1 -14v-29h-79z" />
<glyph unicode="8" d="M189 334l-17 11q-106 65 -106 154q0 14 8 56t79.5 86t195.5 44q30 0 84.5 -5t103 -29t71.5 -57.5t23 -72.5q0 -53 -32.5 -81.5t-67.5 -48.5l-21 -10l-10 -5l8 -4l22 -10l28 -14q16 -9 43 -26t47.5 -54t20.5 -79q0 -75 -47.5 -118.5t-99 -63.5t-122.5 -20h-109 q-90 8 -150.5 37.5t-86 66.5t-25.5 79q0 52 28.5 82.5t61.5 51.5t70 30zM409 410l16 6q40 17 59.5 44t19.5 58q0 45 -42 69.5t-131 24.5q-15 0 -21.5 -1.5t-31 -9t-45.5 -24.5t-21 -45q0 -27 20.5 -43t39 -25.5t58.5 -26.5l53 -19zM277 295l-17 -6q-33 -13 -55 -32 t-31 -38.5t-9 -40.5q0 -55 44.5 -80.5t75 -30t49.5 -5t31 -0.5q41 0 70.5 9t55.5 30.5t26 54.5q0 38 -32.5 56t-51.5 27t-61.5 25t-94.5 31z" />
<glyph unicode="9" horiz-adv-x="698" d="M179 86l22 -7q49 -15 88 -15q13 0 53 4.5t79 46.5t47 93.5t8.5 76t0.5 37.5l-18 -13q-71 -49 -162 -49h-15h-12q-8 2 -62 8t-111.5 62t-57.5 137v15q2 10 7.5 53t82 99t192.5 56q47 0 128 -16.5t145 -98.5t64 -213v-41q-3 -18 -11 -82.5t-77 -140.5t-150 -92.5 t-128 -16.5q-82 0 -142.5 31t-77 66.5t-16.5 57.5q0 33 20.5 57t54.5 29l22 2q41 0 64.5 -20.5t23.5 -52.5q0 -9 -5.5 -31.5t-42.5 -37.5zM205 469l3 -23q15 -90 66 -100t66 -10q58 0 93.5 37.5t35.5 99.5q0 7 -1 15.5t-4.5 33t-30.5 54.5t-57 35.5t-45 5.5q-51 0 -83.5 -32 t-40.5 -89z" />
<glyph unicode=":" horiz-adv-x="268" d="M47 66q0 36 26 62t66 26t66.5 -25t26.5 -59q0 -35 -28 -59t-66 -24q-39 0 -65 23t-26 56zM48 432q0 32 26.5 55.5t66.5 23.5q37 0 64.5 -23t27.5 -56t-27 -56t-66 -23q-41 0 -66.5 23.5t-25.5 55.5z" />
<glyph unicode=";" horiz-adv-x="270" d="M47 -84l7 5l17 10q34 21 48 35t22 35l-16 -3q-37 0 -57 22.5t-20 51.5q0 33 26 58t61 25q39 0 69.5 -29t30.5 -73q0 -43 -35 -91t-103 -88l-18 -10zM49 432q0 33 25.5 56.5t67.5 23.5q37 0 64.5 -23.5t27.5 -56.5t-27.5 -56t-65.5 -23q-41 0 -66.5 23.5t-25.5 55.5z" />
<glyph unicode="&#x3c;" horiz-adv-x="489" d="M34 360l421 234v-143l-180 -91l180 -91v-143z" />
<glyph unicode="=" horiz-adv-x="696" d="M99 141v143h498v-143h-498zM99 340v143h498v-143h-498z" />
<glyph unicode="&#x3e;" horiz-adv-x="489" d="M34 126v143l180 91l-180 91v143l421 -234z" />
<glyph unicode="?" horiz-adv-x="544" d="M163 66q0 36 25.5 62.5t67.5 26.5q40 0 66 -25.5t26 -59.5q0 -37 -27.5 -59.5t-67.5 -22.5q-38 0 -64 23t-26 55zM295 208h-87q-2 18 -2 29q0 7 1 15l5 40q3 30 47 87l37 43l37 46q25 35 25 73q0 34 -22.5 61.5t-53.5 35.5t-54 8q-7 0 -15.5 -1t-55 -7.5t-63.5 -74.5 q20 14 44 14q14 0 33 -8t31 -26t12 -41q0 -30 -24.5 -57t-69.5 -27q-18 0 -42 6.5t-45.5 37t-21.5 72.5q0 21 11.5 66t90.5 86t199 41q103 0 163.5 -54.5t60.5 -129.5q0 -57 -33 -96.5t-135 -100.5l-15 -11q-31 -25 -44.5 -49t-13.5 -59v-19z" />
<glyph unicode="@" horiz-adv-x="794" d="M462 227l-20 -33q-34 -43 -84 -43q-23 0 -76.5 22.5t-53.5 167.5l4 34q9 61 35.5 108t65 74.5t81.5 27.5q32 0 56.5 -15.5t34.5 -42.5l8 48h52l-36 -207l-13 -81l-3 -41q0 -47 40 -47q4 0 15 3t21.5 11t29.5 28.5t35 55.5t22 65t6 49q0 116 -69 189.5t-179 73.5 q-12 0 -26 -1.5t-73 -10t-131.5 -96.5t-72.5 -211v-18q2 -12 2 -18q0 -28 7 -51.5t33.5 -80t94.5 -101.5t150 -45q96 0 169 48t112 107l14 -59l-25 -29q-114 -123 -273 -123q-142 0 -242 90.5t-107.5 168t-8 89t-0.5 26.5q0 109 47 191.5t124.5 127.5t127 51t74.5 6 q136 0 224.5 -86.5t88.5 -217.5q0 -37 -11 -91.5t-49.5 -107.5t-68 -65.5t-44.5 -15.5t-25 -3q-34 0 -57 18t-26 48v13zM294 292q0 -21 3 -34t14.5 -36.5t52.5 -23.5q27 0 41 14.5t24 33t18.5 41.5t14 43t8.5 40l3 18l6 34q1 7 1.5 20.5t1.5 23.5v12q0 26 -18 43t-44 17 q-16 0 -34.5 -8t-37 -32t-35.5 -73l-13 -48q-3 -18 -4.5 -40t-1.5 -45z" />
<glyph unicode="A" horiz-adv-x="825" d="M-17 0v88h27h7l7 1q19 2 30.5 12.5t23.5 38.5l240 580h200l230 -580q12 -31 23 -40t38 -12h6h27v-88h-370v88h71q25 0 25 14q0 5 -1 8l-12 30l-38 95h-276l-39 -95q-4 -10 -7.5 -20.5t-3.5 -16.5q0 -15 26 -15h75v-88h-309zM277 325h206l-102 262z" />
<glyph unicode="B" horiz-adv-x="823" d="M8 632v88h473q142 0 213.5 -43t71.5 -120q0 -21 -6.5 -51.5t-37.5 -63.5t-86 -56l-14 -5l16 -4q83 -20 127.5 -66.5t44.5 -110.5q0 -18 -4 -36t-8 -30t-20 -41.5t-64.5 -56.5t-136.5 -34l-49 -2h-520v88h72h11q29 0 37 9.5t8 42.5l1 41v399q0 34 -7.5 43t-37.5 9h-11h-73 zM324 419h140l23 1q88 13 94.5 60t6.5 54q0 99 -130 99h-134v-214zM324 92h141q64 0 100 25t41.5 56t5.5 45q0 52 -39.5 81.5t-113.5 29.5h-135v-237z" />
<glyph unicode="C" horiz-adv-x="759" d="M638 655l27 63h86v-275h-100l-3 26q-15 89 -70.5 134.5t-145.5 45.5q-91 0 -146.5 -71.5t-55.5 -200.5q0 -29 6.5 -93.5t49 -123t91 -72t78.5 -13.5q71 0 123.5 46.5t65.5 122.5l3 32h102l-2 -41q-14 -116 -100 -184.5t-228 -68.5q-26 0 -117 8.5t-184.5 110t-93.5 255.5 q0 38 14.5 120.5t97 162.5t151.5 91t94 12t27 1q61 0 113 -16.5t93 -49.5z" />
<glyph unicode="D" horiz-adv-x="893" d="M8 632v88h426q209 0 322.5 -91t113.5 -252q0 -41 -17 -131.5t-109 -167t-240 -76.5l-62 -2h-433v88h71q38 0 48.5 9.5t10.5 42.5v29v410q0 34 -7 43t-35 9l-12 1h-77zM326 89h115q104 0 157 54t61 122t8 81v21q0 22 -9.5 95t-59 120.5t-157.5 47.5h-114z" />
<glyph unicode="E" horiz-adv-x="818" d="M8 632v88h785v-276h-96v44q0 78 -46.5 112.5t-154.5 34.5h-171v-217h77q47 0 67.5 20.5t20.5 70.5v23h88v-320h-86v28q0 89 -85 89h-82v-239h176l32 1q86 0 125 39t39 123l1 41h95v-294h-785v88h74h11q29 0 37 9.5t8 42.5v36v404q0 33 -7.5 42.5t-34.5 9.5h-11h-77z" />
<glyph unicode="F" horiz-adv-x="780" d="M8 632v88h774v-277h-92l-1 38l-2 30q-12 69 -51.5 94.5t-137.5 25.5h-176v-219h64q57 0 81 20t24 70l1 27h84v-321h-82v25l-2 18q-6 42 -27.5 58.5t-71.5 16.5h-71v-186q0 -51 34 -51l18 -1h11h75v-88h-451v88h78h11q23 0 30 10t7 42v26v413q0 34 -8.5 43.5t-39.5 9.5 h-79z" />
<glyph unicode="G" horiz-adv-x="876" d="M634 650l19 70h96v-276h-97q0 8 -3 18t-26.5 93.5t-187.5 83.5q-94 0 -148 -77.5t-54 -217.5q0 -23 4 -45t15.5 -59.5t36 -73.5t66 -62t97.5 -26q54 0 83 21.5t39.5 38.5t10.5 30v63l-1 15q-2 22 -9 30t-24 8h-26h-15l-45 1v88l397 -3v-88h-57q-22 0 -31.5 -7.5 t-11.5 -27.5l-1 -10v-7v-230h-84l-31 74l-22 -20q-46 -37 -95.5 -54.5t-115.5 -17.5q-38 0 -129 13t-175 112t-84 241q0 49 16 125.5t93 153t155 92t121 15.5q112 0 160.5 -34.5t63.5 -49.5z" />
<glyph unicode="H" horiz-adv-x="966" d="M8 0v88h78h10q24 0 32 10t8 42v440q0 33 -6 41.5t-33 10.5h-10h-78v88h426v-88h-74q-37 0 -37 -22l-1 -31v-167h320v167l-1 27v4q-1 11 -9.5 16.5t-26.5 5.5h-75v88h427v-88h-78h-11q-25 -2 -32 -11t-7 -41v-440q0 -32 7.5 -42t31.5 -10h11h78v-88h-425v88h66 q29 0 36.5 8.5t7.5 43.5v184h-320v-184l1 -24v-6q2 -14 12.5 -18t22.5 -4h74v-88h-425z" />
<glyph unicode="I" horiz-adv-x="460" d="M8 632v88h444v-88h-76h-9l-14 -2q-19 -2 -23.5 -16t-4.5 -35l-1 -439q0 -34 6.5 -43t32.5 -9h11h78v-88h-443v88h74h11q27 0 35 10t8 42v34l1 405q0 33 -7.5 42.5t-34.5 9.5l-10 1h-78z" />
<glyph unicode="J" horiz-adv-x="622" d="M91 105q17 -17 37 -26t46 -9q73 0 104.5 31.5t31.5 108.5v369q0 29 -7.5 40t-28.5 11l-19 2h-11h-74v88h441v-88h-74l-8 -1q-17 0 -23 -7t-8 -32v-13v-357q0 -120 -66.5 -181.5t-203.5 -61.5q-91 0 -148 29.5t-75.5 72.5t-18.5 75q0 49 18 68t22 22.5t15.5 10.5t28.5 11 t33 4q38 0 61.5 -24.5t23.5 -59.5v-16l-8 -22q-5 -14 -25.5 -29.5t-48.5 -15.5h-15z" />
<glyph unicode="K" horiz-adv-x="932" d="M8 632v88h418v-88h-74q-18 0 -23 -9t-5 -44v-211l252 212q13 10 19 17t9 13q3 8 -1 14.5t-13 7.5h-46h-41v88h400v-88h-71q-25 0 -52 -22l-37 -31l-161 -133l242 -306l11 -13q21 -22 32 -30t25 -9h5h46v-88h-426v88h41l40 1l15 3q9 3 9 14q0 9 -5 18l-11 16l-165 192 l-117 -101v-91q0 -34 6 -43t30 -9h12h61v-88h-425v88h84h9q21 2 27.5 11.5t6.5 40.5l2 25v415q0 31 -6.5 40.5t-27.5 11.5h-10h-85z" />
<glyph unicode="L" horiz-adv-x="767" d="M8 0v88h76q31 0 39.5 9.5t8.5 42.5v46v394q0 33 -6 41.5t-32 10.5h-10h-76v88h439v-88h-74h-11q-26 0 -34.5 -10.5t-8.5 -41.5v-489h108q130 0 178 35t48 129l1 43h99v-298h-745z" />
<glyph unicode="M" horiz-adv-x="1126" d="M8 633v87h389l175 -484l166 484h380v-87h-80l-13 -1h-5q-23 -3 -23 -46v-452q0 -46 25 -46l8 -1h11h77v-87h-404v87h64q20 0 26 8t6 38v471l-201 -604h-142l-211 594v-461v-22l1 -5q0 -19 28 -19h72v-87h-349v87h72h11h17q23 0 28 33l1 13v454q0 23 -13 34.5t-42 11.5 h-20h-54z" />
<glyph unicode="N" horiz-adv-x="926" d="M8 0v88h87q26 0 33.5 9.5t7.5 42.5v439q0 32 -6.5 41.5t-30.5 11.5h-8h-83v88h330l357 -514v374l-1 14q0 20 -6 27.5t-21 9.5l-8 1h-79v88h338v-88h-78q-25 0 -32 -7t-7 -33l-1 -12v-580h-176l-380 548l1 -408q0 -34 7 -43t31 -9h79v-88h-354z" />
<glyph unicode="O" horiz-adv-x="858" d="M25 366q0 170 108 274t296 104t296 -105t108 -276q0 -170 -108 -274t-296 -104t-296 104t-108 277zM222 366q0 -123 44.5 -198t92.5 -87t72 -12q88 0 146.5 78t58.5 219q0 138 -59 215.5t-147 77.5q-23 0 -70.5 -12t-92.5 -87t-45 -194z" />
<glyph unicode="P" horiz-adv-x="794" d="M8 0v88h66h12q31 0 41 10t10 42v28v412q0 28 -6.5 38t-24.5 12l-16 2h-10h-71v88h525q123 0 190 -51t67 -138q0 -81 -53.5 -136.5t-155.5 -68.5l-46 -3h-212v-183q0 -29 8 -40t32 -11l29 -1h7h74v-88h-466zM324 409h128q54 0 83.5 11t50 39t20.5 66q0 37 -23.5 66.5 t-50 35.5t-44.5 8t-44 2h-120v-228z" />
<glyph unicode="Q" horiz-adv-x="864" d="M730 105l6 -7q15 -18 28.5 -25t27.5 -7q50 0 60 60l1 13l1 32l76 -1v-42l-4 -51q-10 -65 -51 -102.5t-100 -37.5q-25 0 -50.5 7t-57.5 26t-57 53q-58 -24 -96 -29t-56.5 -6t-33.5 -1q-154 0 -261.5 81t-123 168t-15.5 133q0 151 87 249t187 112t142 14q179 0 287 -106 t108 -272q0 -93 -25 -154.5t-80 -106.5zM592 221l6 11q20 33 28.5 65t8.5 69q0 136 -59 214t-146 78q-22 0 -68.5 -11.5t-91.5 -87t-45 -193.5q0 -58 13.5 -102.5t42.5 -83.5l1 11q24 116 139 116q15 0 33 -2t44.5 -15t65.5 -46l22 -18zM522 111l-14 18q-37 46 -61.5 61 t-55.5 15q-23 0 -38.5 -18.5t-15.5 -43.5q0 -16 7 -29.5t17 -23.5q9 -5 15 -7t19.5 -5t29.5 -3q55 0 97 36z" />
<glyph unicode="R" horiz-adv-x="878" d="M8 0v88h80h11q24 0 31 10t7 42v34v405q0 33 -9 43t-40 10h-80v88h458q147 0 216 -31t81 -71t14 -51.5t2 -24.5q0 -54 -35.5 -97t-101.5 -65l-27 -7l17 -5q60 -25 84.5 -65t24.5 -119q0 -29 1 -43.5t3 -24t9 -21.5t24 -12q12 0 20.5 8t12.5 22t4 43v49h79v-64 q0 -148 -163 -148q-91 0 -132 50.5t-41 174.5q0 61 -32.5 86.5t-106.5 25.5h-95l1 -190q0 -35 7.5 -43.5t39.5 -8.5h74v-88h-438zM324 632v-218h158q55 0 81 29t28.5 49t2.5 26v7q0 107 -129 107h-141z" />
<glyph unicode="S" horiz-adv-x="726" d="M569 657l26 63h86v-258h-90l-7 27q-26 74 -80.5 116t-132.5 42q-24 0 -45.5 -0.5t-47 -7t-43.5 -16.5t-31.5 -27.5t-13.5 -41.5q0 -42 25 -56t37.5 -18.5t45.5 -12.5l27 -7l50 -11l31 -6l92 -19q33 -7 83.5 -25t89.5 -69t39 -124q0 -95 -70 -154.5t-198 -59.5h-22 q-38 0 -90 7.5t-100.5 25.5t-91.5 50l-25 -73h-86v278h94l6 -27q15 -47 45.5 -82.5t70 -57t83.5 -30.5t77 -9q68 0 106 29t38 72q-1 7 -1 10q-4 36 -33 56t-111 41l-22 5l-22 4l-74 14q-130 23 -195 79t-65 135q0 29 15 79t87.5 95t182.5 45q46 0 95.5 -8.5t83 -22.5 t69.5 -41z" />
<glyph unicode="T" horiz-adv-x="797" d="M8 438v282h780v-281h-92l-1 37q0 15 -11 58.5t-45.5 69.5t-97.5 26l-48 -1v-489q0 -30 6 -40.5t24 -10.5l16 -1h11h74v-88h-458v88h74h13q31 0 41 10t10 42l2 33v457l-53 -1q-131 0 -141 -70t-10 -88l-1 -33h-93z" />
<glyph unicode="U" horiz-adv-x="877" d="M6 632v88h409v-88h-61l-10 -1q-24 0 -31.5 -10.5t-7.5 -40.5v-316l1 -19q0 -94 40.5 -133.5t131.5 -39.5q164 0 164 167l1 30v311q0 34 -6 43t-29 9h-74v88h337v-88h-71h-9q-19 -2 -25.5 -12.5t-6.5 -39.5v-308q0 -152 -79.5 -221.5t-252.5 -69.5q-170 0 -239.5 67.5 t-69.5 216.5v315l-1 15q-2 22 -8 28.5t-25 8.5h-7h-71z" />
<glyph unicode="V" horiz-adv-x="776" d="M-25 632v88h383v-88h-75q-28 0 -28 -16q0 -10 11 -37l158 -404l161 405q10 24 10 36q0 16 -31 16h-74v88h311v-88h-35q-22 0 -31.5 -7.5t-22.5 -35.5l-4 -9l-240 -580h-167l-233 580q-8 19 -12 26t-14 16.5t-33 9.5h-34z" />
<glyph unicode="W" horiz-adv-x="1194" d="M-19 632v88h366v-88h-54q-36 0 -36 -24q0 -11 6 -28l138 -405l139 404q7 20 7 32q0 21 -36 21h-66v88h372v-88h-60h-4l-7 -1q-18 -5 -18 -21q0 -10 6 -30l132 -401l136 401q9 27 9 37q0 15 -28 15h-66v88h296v-88h-25h-7l-8 -1q-18 -2 -27.5 -12t-20.5 -39l-212 -580 h-174l-142 416l-140 -416h-182l-200 580l-7 15q-17 32 -45 36l-5 1h-4h-33z" />
<glyph unicode="X" horiz-adv-x="876" d="M0 0v88h47q29 0 43 8t48 44l198 215l-188 225q-18 21 -31.5 32t-21.5 14.5t-14.5 4.5t-10.5 1h-55v88h419v-88h-44h-6l-11 -1q-17 -2 -17 -15q0 -3 1 -6q1 -4 4 -9t15 -21l85 -117l104 117q23 25 26 31.5t3 8.5q0 8 -10 11l-19 1h-47v88h324v-88h-45q-25 0 -43 -8 l-21 -14l-28 -30l-165 -181l217 -259l13 -15q22 -23 36.5 -30t38.5 -7h31v-88h-424v88h58q24 0 35 5.5t11 14.5q0 11 -18 32l-122 151l-136 -151q-16 -19 -18 -30q-1 -3 -1 -5q0 -13 18 -16l24 -1h49v-88h-352z" />
<glyph unicode="Y" horiz-adv-x="742" d="M-25 632v88h401v-88h-49l-26 -1q-14 -1 -14 -15q0 -8 5 -17l11 -19l113 -174l109 174l9 17q7 13 7 21q0 11 -17 14h-6h-55v88h304v-88h-26h-7h-7q-18 0 -28.5 -7t-29.5 -31l-10 -14l-194 -283v-157q0 -33 8 -42.5t38 -9.5h11h74v-88h-448v88h75h10l17 1q18 0 25 11t7 40 v32v120l-193 288q-21 31 -31.5 39.5t-32.5 11.5l-11 1h-39z" />
<glyph unicode="Z" horiz-adv-x="721" d="M8 0v109l465 521h-155l-29 -1q-85 0 -119.5 -31.5t-34.5 -107.5l-2 -46h-95v276h659v-101l-477 -531h222q162 0 162 153l1 37h96v-278h-693z" />
<glyph unicode="[" horiz-adv-x="268" d="M39 -129v978l229 1v-124l-69 3v-738l69 3v-124z" />
<glyph unicode="\" horiz-adv-x="320" d="M34 720h126l126 -720h-126z" />
<glyph unicode="]" horiz-adv-x="268" d="M0 -130v124l69 -3v738l-69 -3v124l229 -1v-978z" />
<glyph unicode="^" horiz-adv-x="537" d="M34 155l234 421l235 -421h-143l-92 180l-91 -180h-143z" />
<glyph unicode="_" horiz-adv-x="428" d="M34 -40v40h360v-40h-360z" />
<glyph unicode="`" horiz-adv-x="253" d="M1 680l63 75l156 -154l-41 -47z" />
<glyph unicode="a" horiz-adv-x="666" d="M155 424q41 -15 41 -58q0 -28 -21 -47t-53 -19q-7 1 -10 1q-31 3 -51 24t-20 50q0 11 11 44t82 61.5t202 28.5q10 0 20 -1l56 -8q46 -7 84.5 -46t38.5 -105v-201v-17v-16q0 -12 3.5 -20t10 -13t15.5 -5q12 0 18 10l6 20l4 43v18l1 16h64v-19q0 -97 -27.5 -137.5 t-94.5 -40.5q-112 0 -145 67l-6 15q-22 -33 -59.5 -53.5t-79 -26t-62.5 -5.5q-69 0 -110 30t-45.5 59.5t-5 38t-0.5 12.5q0 97 133 131l84 16l30 7q56 14 81 33t25 48q0 4 -0.5 10.5t-5 23.5t-26.5 31.5t-46.5 18t-38.5 3.5h-13q-54 0 -90 -22zM371 247q-21 -11 -35 -16.5 t-45 -14.5l-23 -8q-44 -14 -63 -30t-19 -39q0 -13 6 -29t24 -27t44 -11q11 0 23.5 2t35.5 14t37.5 40t14.5 75v44z" />
<glyph unicode="b" horiz-adv-x="695" d="M5 640v80h255v-271l16 13q53 40 96 46t62 6q103 0 169.5 -72t66.5 -189v-16q0 -7 -1 -15.5t-4.5 -49.5t-57 -102.5t-110 -73t-82.5 -11.5q-97 0 -171 68l-16 17l-32 -70h-99v591q0 30 -7.5 39.5t-28.5 9.5h-56zM255 244l2 -31q5 -60 27.5 -94.5t51 -42.5t43.5 -8 q51 0 85.5 46.5t34.5 132.5q0 75 -26 120.5t-54 52.5t-46 7q-53 0 -85.5 -47t-32.5 -136z" />
<glyph unicode="c" horiz-adv-x="561" d="M432 401q-32 34 -89 34q-31 0 -67.5 -14t-58 -58.5t-21.5 -123.5q0 -74 29.5 -117t63 -50.5t51.5 -7.5q94 0 118 110l2 17h87l-3 -30q-13 -84 -73.5 -131.5t-159.5 -47.5q-10 0 -21 1l-74 7q-61 5 -126.5 74t-65.5 176q0 32 12.5 92t76.5 114.5t116.5 60t62 6t22.5 0.5 q82 0 140 -32.5t75 -73t17 -63.5q0 -39 -24.5 -65.5t-63.5 -26.5q-42 0 -70 22.5t-28 53.5q0 29 24 50l17 12q13 8 31 11z" />
<glyph unicode="d" horiz-adv-x="696" d="M431 448v143q0 29 -10 39t-41 10h-52v80h266v-591q0 -28 9 -38t35 -10h50v-81h-253v66l-15 -16q-68 -61 -155 -61q-26 0 -84 13t-107.5 78.5t-49.5 163.5q0 31 11 94.5t76.5 120t152.5 56.5q32 0 78 -12.5t89 -54.5zM196 256l1 -33q6 -70 38 -107t80 -37q6 0 12 0.5 t23 4.5q42 13 64 54.5t22 118.5q0 65 -23 106t-52 51t-49 10q-44 0 -75 -36t-39 -104z" />
<glyph unicode="e" horiz-adv-x="587" d="M568 232h-380v-23q0 -56 28.5 -92t61 -44t52.5 -8q44 0 77.5 25.5t47.5 72.5l3 14h104q-13 -85 -81 -138t-171 -53h-35q-16 3 -71.5 10.5t-117 77.5t-61.5 173q0 116 78 191t204 75q114 0 187.5 -66.5t73.5 -174.5v-40zM191 305h220v15q0 53 -29.5 84.5t-73.5 31.5 q-15 0 -39 -6.5t-46.5 -35t-29.5 -69.5z" />
<glyph unicode="f" horiz-adv-x="419" d="M10 0v81h52q27 0 35.5 9.5t8.5 38.5v286h-95v83h95v63q0 133 86.5 155.5t136.5 22.5q75 0 124 -30.5t52.5 -54.5t3.5 -35q0 -63 -37.5 -72.5t-51.5 -9.5q-33 0 -56 18q-23 20 -23 49q0 34 28 50l18 7l-15 6q-17 7 -35 7q-32 0 -51.5 -23.5t-19.5 -64.5l-1 -17v-71h134 v-83h-129v-285q0 -30 10.5 -39.5t46.5 -9.5h13h53v-81h-383z" />
<glyph unicode="g" horiz-adv-x="670" d="M96 -28l-17 8q-26 17 -39.5 38t-13.5 46q0 47 36 73.5t57 36.5l-15 12q-28 27 -42.5 61.5t-14.5 70.5q0 44 20.5 83t74.5 75t153 36q41 0 78.5 -8t66 -20t53.5 -29l9 12q30 38 58.5 44.5t45.5 6.5q32 0 57 -15t34.5 -37t9.5 -42q0 -29 -18 -50t-45 -21q-28 0 -46 17 t-18 43q0 13 3 21t5 12.5t7 10.5q-8 2 -11 2q-21 0 -33 -19t-12 -29q0 -6 3 -17l2 -9l4 -16q6 -27 6 -52q0 -43 -22 -85.5t-67 -69t-120 -34.5h-76q-16 0 -32.5 2.5t-37.5 7.5l-7 2l-17 4q-10 2 -12 2q-12 0 -20.5 -12.5t-8.5 -21.5q0 -26 25 -33.5t38 -9.5t39 -2h24l70 2 h38q75 0 114 -6t72.5 -21.5t54 -48.5t20.5 -70q0 -42 -29.5 -82t-108 -62t-219.5 -22q-21 0 -39.5 1t-64.5 8t-74 16.5t-56.5 32t-28.5 59.5q0 50 28.5 67t39.5 22.5t19 8.5zM197 314q0 -52 21 -80t44.5 -32.5t28 -5t12.5 -0.5q11 0 34.5 4.5t45 33t21.5 80.5v15 q-2 11 -4 36t-29 51.5t-66 26.5q-10 0 -59 -12t-49 -117zM136 -109q3 -19 24 -32.5t55.5 -20.5t81.5 -8t58 -1l63 7q49 9 67.5 23t18.5 35q0 22 -19 33t-67 16l-18 2l-70 2l-70 2q-56 0 -74 -2t-36 -16q-15 -11 -15 -29q0 -5 1 -11z" />
<glyph unicode="h" horiz-adv-x="727" d="M8 0v80h51q27 0 36 10t9 39l1 34v428v22q-2 12 -7.5 17t-13 7t-21.5 2h-54v81h260v-287q43 48 93 63.5t88 15.5q18 0 102.5 -14t84.5 -167v-201v-11l1 -13q0 -26 23 -26h58v-80h-321v80h53q23 0 23 25v4v20v182q0 106 -80 106q-16 0 -42 -8t-46.5 -29.5t-28.5 -43 t-8 -53.5v-154v-5v-19q0 -25 20 -25h52v-80h-333z" />
<glyph unicode="i" horiz-adv-x="368" d="M14 0v80h52q26 0 35 10t9 39v36v202l-1 19v5l-3 8q-5 9 -12.5 13t-23.5 4h-53v82h256v-369v-18l1 -6q3 -25 34 -25h52v-80h-346zM90 646q0 35 25.5 62.5t65.5 27.5q42 0 71.5 -24t29.5 -62q0 -35 -28 -60.5t-68 -25.5q-42 0 -69 24t-27 58z" />
<glyph unicode="j" horiz-adv-x="362" d="M39 -161q12 -6 24 -6q4 0 9 1q57 8 57 68l1 16v17v429q0 29 -10 39t-39 10h-53v85h266v-529q0 -84 -32 -129.5t-78 -58t-65 -14.5t-39 -2q-61 0 -103 25t-52 53t-10 45q0 34 21 58t58 24q6 1 8 1q54 0 65 -29t11 -42q0 -31 -26 -52zM111 646q0 36 25 63t66 27 q40 0 72 -24q29 -24 29 -62q0 -35 -28 -60.5t-68 -25.5q-42 0 -69 24t-27 58z" />
<glyph unicode="k" horiz-adv-x="724" d="M8 639v81h260v-459l138 105q19 14 25 20.5t6 12.5q0 12 -17 15h-20h-32v84h320v-83h-53q-25 0 -54 -17l-12 -8l-9 -7l-22 -17l-56 -44l145 -193l13 -16l6 -8l7 -7q17 -17 32 -17h53v-81h-343v80h12q19 0 28 2t9 13q0 5 -3 10l-15 24l-70 95l-90 -67v-32l1 -20 q0 -20 21 -23l12 -1l6 -1h35v-80h-332v80h49q26 0 34 7.5t10 15.5t2 26v42v420v20v4q-2 9 -9.5 16.5t-33.5 7.5h-53z" />
<glyph unicode="l" horiz-adv-x="367" d="M8 0v80h49q29 0 38 9t9 40v37v425q0 30 -8.5 39.5t-36.5 9.5h-51v80h259v-591q0 -29 8 -39t33 -10h50v-80h-350z" />
<glyph unicode="m" horiz-adv-x="1082" d="M14 0v80h52q27 0 37 10t10 40l1 25v213q0 30 -8.5 39.5t-35.5 9.5h-52v81h255v-69q40 48 79.5 61.5t59 17t41.5 3.5q55 0 100.5 -24.5t69.5 -66.5l17 21q33 36 77.5 54t91.5 18q19 0 66.5 -10.5t79 -54t31.5 -133.5v-185q0 -28 7 -39t26 -11h55v-80h-320v81h36h10 q19 4 22 26l1 12v11v181l-3 37q-5 30 -26 48t-52 18q-23 0 -67 -23t-44 -95v-166v-4l1 -20q0 -22 18 -25h5l5 -1h39v-80h-300v81l37 -1h6l5 1q20 3 20 25v14l1 10v184q0 12 -1.5 23t-5 26.5t-26 32.5t-50.5 17q-21 0 -42 -11t-43.5 -38t-22.5 -83v-151v-6l1 -18 q0 -26 27 -26h40v-80h-331z" />
<glyph unicode="n" horiz-adv-x="731" d="M14 415v83h254v-71q54 65 114 73.5t88 8.5q90 0 130 -50.5t40 -156.5v-173l1 -10v-14q0 -25 29 -25h53v-80h-316v80h35h7q14 0 20 8t8 32v9v169v18q0 9 -2.5 31.5t-26.5 43.5t-58 21q-24 0 -71 -22t-47 -113v-148v-13l1 -11q0 -24 26 -24l9 -1h39v-80h-333v80h56 q24 0 31.5 9.5t7.5 39.5v25v213v18l-1 5q0 25 -35 25h-59z" />
<glyph unicode="o" horiz-adv-x="643" d="M25 250q0 115 79.5 188t213.5 73q27 0 89.5 -7.5t126 -62t74 -110.5t10.5 -86q0 -103 -66 -173.5t-136.5 -78.5t-97.5 -8q-135 0 -214 74t-79 191zM195 250l2 -40q7 -74 39.5 -111t84.5 -37q57 0 92.5 45.5t35.5 134.5q0 22 -5.5 70t-38 84.5t-84.5 36.5l-22 -2 q-43 -8 -69 -43t-33 -100z" />
<glyph unicode="p" horiz-adv-x="693" d="M8 -219v82h51q26 0 34.5 9.5t8.5 39.5v456l-1 19v6q-3 24 -39 24h-54v81h253v-67q50 64 105 72.5t74 8.5q98 0 163 -70t65 -184q0 -121 -66.5 -194t-172.5 -73h-18q-7 1 -11 1q-61 6 -118 46l-17 13v-139q0 -30 10.5 -39.5t43.5 -9.5h48v-82h-359zM261 247 q0 -75 22.5 -115.5t52 -47t47.5 -6.5q78 0 98 63.5t20 111.5l-1 31q-6 68 -37.5 104.5t-78.5 36.5q-14 0 -45.5 -9t-54.5 -50.5t-23 -118.5z" />
<glyph unicode="q" horiz-adv-x="693" d="M463 429l30 69h106v-590v-13l1 -11q0 -26 40 -26h45v-77h-348v75h22h20h12l13 2q20 5 26 13t6 31v147q-55 -52 -104.5 -59.5t-70.5 -7.5q-103 0 -169.5 71.5t-66.5 186.5q0 10 0.5 20t10 72t78.5 120t163 58q11 0 22.5 -1.5t52 -7.5t93.5 -54zM197 242q0 -72 31 -118 t90 -46t86.5 40t31 74t4 41.5t0.5 12.5v16q-2 10 -3.5 29.5t-8 41.5t-21 42t-38.5 32t-51 12q-44 0 -68.5 -25t-36 -54t-15.5 -67z" />
<glyph unicode="r" horiz-adv-x="494" d="M8 414v84h258v-73l13 20q51 70 125 70q8 0 46.5 -7t52.5 -42.5t14 -56.5q0 -31 -17 -54t-36 -27.5t-30 -4.5q-28 0 -49.5 16t-24.5 34.5t-3 23.5q0 27 20 47q-58 0 -84 -53t-26 -101v-161q0 -30 10.5 -39.5t44.5 -9.5h53v-80h-366v80h50q26 0 35.5 10.5t9.5 38.5v36v201 q0 29 -9.5 38.5t-36.5 9.5h-50z" />
<glyph unicode="s" horiz-adv-x="574" d="M437 459l18 42h69v-172h-74l-9 18q-18 32 -40 50.5t-46.5 26.5t-46 10t-40.5 2q-43 0 -64.5 -16t-21.5 -38q0 -19 17.5 -30.5t65.5 -22.5l18 -4l55 -10q71 -12 107.5 -26t70.5 -44t34 -92q0 -68 -41.5 -102.5t-87.5 -49t-99 -14.5q-31 0 -67.5 6t-68 18.5t-62.5 34.5 l-19 -46h-72v185h74l7 -15q45 -82 100 -92.5t67 -11.5t22 -1q23 0 43.5 7t35 18t14.5 33q0 20 -13 30.5t-32 17t-58 14.5l-25 5q-42 7 -64 12t-48 12.5t-46.5 17t-51.5 34t-31 85.5q0 36 17.5 68.5t65 63t139.5 30.5q33 0 85 -9t103 -45z" />
<glyph unicode="t" horiz-adv-x="443" d="M5 418v78q23 0 82 14.5t76 140.5l2 30h91v-183h163v-82h-163v-244v-16v-20q0 -30 12 -46t33 -16q26 0 41.5 18.5t15.5 61.5l1 14v45h77v-65q0 -159 -171 -159q-92 0 -132 46.5t-40 151.5v231h-88z" />
<glyph unicode="u" horiz-adv-x="717" d="M8 417v81h248v-302q0 -27 3.5 -50.5t26.5 -42.5t55 -19q27 0 51 12t41 32t22.5 39.5t5.5 56.5v142q0 29 -8 39t-33 10h-52v83h256v-369q0 -30 7.5 -39.5t29.5 -9.5h48v-80h-244v69l-12 -13q-56 -59 -106 -63t-61.5 -5t-17.5 -1q-93 0 -134 50t-41 159v172v21l-2 11 q-5 17 -24 17h-59z" />
<glyph unicode="v" horiz-adv-x="592" d="M-25 415v83h331v-82h-52q-34 0 -34 -21q0 -3 2 -11l7 -17l105 -236l96 237q8 21 8 29q0 15 -16 18l-5 1h-4h-37v82h241v-82h-38h-5l-5 -1q-10 -2 -16.5 -9.5t-16.5 -26.5l-5 -11l-157 -368h-149l-166 366q-12 24 -21 33.5t-14.5 12.5t-19.5 3h-29z" />
<glyph unicode="w" horiz-adv-x="931" d="M-14 417v81h303v-81h-19l-13 -1q-24 -3 -24 -19q0 -5 3 -13l4 -16l79 -220l81 221q5 15 5 23q0 24 -30 24l-12 1h-13v81h311v-81l-14 -1h-15q-35 0 -35 -24q0 -8 5 -23l82 -219l86 218q7 17 7 28q0 16 -21 19l-8 1l-6 1h-20v81h223v-82h-16l-12 -1q-32 0 -49 -36l-5 -11 l-142 -368h-145l-110 281l-113 -281h-139l-145 368q-11 29 -22 39t-34 10h-6h-21z" />
<glyph unicode="x" horiz-adv-x="672" d="M-6 0v80h30q28 0 56 16l13 8l4 4l24 21l123 110l-130 128l-24 24q-21 21 -47 24l-6 1h-4h-22v82h329v-82h-8l-17 -1h-7q-15 -2 -13 -16q1 -4 7 -11.5t18 -20.5l51 -54l55 54l15 15l9 9l5 9q4 12 -9 15h-5l-3 1h-25v82h246v-83h-18q-20 0 -31.5 -4t-32.5 -20l-28 -24 l-118 -102l141 -136l8 -7l18 -17q18 -15 27.5 -20t24.5 -5h28v-80h-339v80h17l7 1h8q10 1 15 8.5t0 15.5q-4 8 -20 24l-58 61l-62 -61l-21 -24q-4 -6 -4 -10q0 -9 9 -13l9 -2h19v-80h-264z" />
<glyph unicode="y" horiz-adv-x="634" d="M91 -153q17 -16 43 -16q25 0 49 16.5t44 50.5l8 14l8 15l26 53l-194 388l-6 12l-6 11q-12 20 -33 23l-6 1h-8h-34v83h349v-80h-53l-13 -1q-18 0 -18 -16q0 -6 5 -19l6 -13l104 -213l108 213l6 13l5 11q2 3 2 9q0 16 -30 16h-52v80h252v-80l-8 -1l-25 -1q-18 -3 -32 -25 l-9 -14l-5 -10l-230 -436l-17 -31q-23 -38 -43 -62t-55.5 -50.5t-98.5 -26.5q-49 0 -88.5 24t-50.5 55.5t-11 51.5q0 38 22.5 66.5t43.5 32t32 3.5q34 0 57.5 -21.5t23.5 -52.5q0 -7 -3.5 -31.5t-51.5 -39.5z" />
<glyph unicode="z" horiz-adv-x="548" d="M19 0v100l302 316h-98q-117 0 -117 -87v-32h-76v201h496v-89l-316 -326h105q71 0 101 24t30 82v35h79v-224h-506z" />
<glyph unicode="{" horiz-adv-x="354" d="M34 360q29 0 47.5 20.5t18.5 51.5v315q0 43 25 68t69 25h126v-75h-13q-32 0 -44 -11t-12 -40v-264q0 -27 -16 -50t-42 -34l-27 -6l27 -6q58 -25 58 -84v-264q0 -28 12.5 -39.5t43.5 -11.5h13v-75h-126q-45 0 -69.5 24.5t-24.5 68.5v315q0 31 -18.5 51.5t-47.5 20.5z" />
<glyph unicode="|" horiz-adv-x="194" d="M34 0v720h126v-720h-126z" />
<glyph unicode="}" horiz-adv-x="354" d="M34 -120v75h13q32 0 44 11t12 40v264q0 27 16 50t42 34l27 6l-27 6q-58 25 -58 84v264q0 28 -12.5 39.5t-43.5 11.5h-13v75h126q45 0 69.5 -24.5t24.5 -68.5v-315q0 -31 18.5 -51.5t47.5 -20.5q-29 0 -47.5 -20.5t-18.5 -51.5v-315q0 -43 -25 -68t-69 -25h-126z" />
<glyph unicode="~" horiz-adv-x="506" d="M34 271l1 25q7 78 39.5 117.5t85.5 39.5q15 0 28.5 -3t34.5 -10l83 -32l23 -8q9 -3 16 -3q19 0 26 20.5t7 27.5l1 9h93l-1 -25q-14 -156 -124 -156q-27 0 -64 13l-83 31l-23 8q-8 4 -17 4q-17 0 -24.5 -20t-7.5 -28l-1 -10h-93z" />
<glyph unicode="&#xa1;" horiz-adv-x="277" d="M53 647q0 32 26 55t66 23q37 0 65 -23.5t28 -59.5q0 -33 -27 -58.5t-66 -25.5q-41 0 -66.5 26.5t-25.5 62.5zM101 496h86l2 -50q0 -48 6.5 -89t23.5 -108l12 -53l2 -8l5 -22q3 -17 3 -41l-2 -30q-5 -37 -17 -59t-32.5 -35t-45.5 -13t-46 13t-32.5 35t-15 49.5t-3.5 38.5 q0 18 1 27.5t6 36.5l15 61q13 52 21.5 101.5t8.5 95.5z" />
<glyph unicode="&#xa2;" horiz-adv-x="561" d="M280 505v73h52v-71l34 -4l35 -4l4 -1q22 -5 48 -18.5t48 -36.5t33.5 -50.5t11.5 -50.5q0 -39 -24.5 -65.5t-63.5 -26.5q-42 0 -70 22.5t-28 53.5q0 29 24 50l17 12q13 8 31 11q-16 16 -34 24.5t-41 8.5q-18 0 -26 -2v-368l28 1q41 7 64.5 32.5t34.5 75.5l2 17h87l-3 -30 q-24 -152 -197 -177l-17 -2v-70h-53v72l-26 3q-107 17 -166.5 84.5t-59.5 168.5q0 37 9.5 84.5t48 93t89 68t108.5 22.5zM277 409q-35 -16 -56.5 -55.5t-21.5 -98.5v-30q3 -13 5 -28.5t15.5 -46.5t26.5 -47t32 -24z" />
<glyph unicode="&#xa3;" horiz-adv-x="637" d="M220 131q-12 12 -25.5 17.5t-21 7t-15.5 1.5q-44 0 -44 -42q0 -6 3 -23t39 -17q16 0 33.5 11t27.5 35zM217 217q0 25 -6 41.5t-29 55.5l-8 13l-140 -3v88l89 -1l-2 7l-9 18q-16 39 -18.5 57.5t-2.5 31.5q0 82 70.5 143t185.5 61q104 0 170.5 -52.5t66.5 -129.5v-23 l-142 -14l-2 12q-10 85 -78 96q-10 1 -15 1t-40 -6.5t-35 -67.5q0 -21 11 -51l6 -15l7 -15l12 -26l12 -26l153 2v-88h-127l6 -25q6 -30 6 -59q0 -18 -3 -38t-8 -38l7 -5l11 -6q35 -20 60 -20q6 0 18 2q47 12 56 65l1 15l112 -28q0 -12 -3 -24.5t-14.5 -53t-56 -80 t-102.5 -39.5q-54 0 -107 34l-17 12l-10 8l-11 9q-16 -21 -37 -34.5t-41 -21.5t-37 -8q-42 0 -76.5 14.5t-48.5 35.5t-20 40.5t-6 35.5q0 46 34 81t85 35q30 0 63 -12z" />
<glyph unicode="&#xa4;" horiz-adv-x="460" d="M34 209l55 55q-29 46 -29 98t29 98l-53 53q8 12 17 22t22 22l57 -57q24 16 49 24t51 8q53 0 96 -31l56 57l13 -10q17 -15 29 -35l-54 -52q31 -43 31 -101q0 -52 -33 -98l55 -55l-9 -10l-9 -10l-23 -23l-56 56q-41 -31 -97 -31q-18 0 -27 1t-24 7q-25 7 -46 24l-59 -56 l-10 10l-10 11l-11 11zM119 360q0 -46 33 -79t80 -33q46 0 79 33t33 79q0 47 -32.5 79.5t-79.5 32.5t-80 -32t-33 -80z" />
<glyph unicode="&#xa5;" horiz-adv-x="820" d="M14 632v88h401v-88h-49l-26 -1q-14 -1 -14 -15q0 -8 5 -17l11 -19l113 -174l109 174l9 17q7 13 7 21q0 11 -17 14h-6h-55v88h304v-88h-26h-7h-7q-18 0 -29 -7t-30 -32l-9 -13l-139 -209h224v-62h-268l-11 -15l1 -27l277 1v-59l-277 -2l-1 -67q0 -26 5 -39t41 -13h11h74 v-88h-448v88h75h10l17 1q18 0 25 11t7 40v32l-1 38h-282l-1 60h286l-2 22l-14 20h-269v62h228l-138 206q-21 31 -31.5 39.5t-32.5 11.5l-11 1h-39z" />
<glyph unicode="&#xa7;" horiz-adv-x="619" d="M110 437q-27 21 -41.5 52t-14.5 66t14 66t42 55t66.5 38.5t69.5 17.5t41 3.5t24 0.5q97 0 162 -38.5t83.5 -88t18.5 -79.5h-149l-2 14q-17 70 -60.5 79.5t-57.5 9.5q-22 0 -51 -13t-29 -46q0 -20 16 -36q14 -12 48 -28l164 -67q33 -13 86.5 -53.5t53.5 -132.5 q0 -79 -60 -136l-25 -21q55 -38 55 -109q0 -12 -3 -27.5t-11 -47.5t-55 -67.5t-105.5 -43t-92.5 -7.5q-96 0 -161.5 40t-81.5 89t-16 86l150 -1l1 -16q5 -39 29.5 -63.5t48 -28.5t29.5 -4h13q53 0 68 23t15 41q0 29 -24 43l-30 16l-174 72q-67 28 -103.5 77.5t-36.5 106.5 q0 37 14 70t45 65zM224 375l-9 -8q-16 -16 -25 -35.5t-9 -35.5q0 -45 50 -65l170 -71l10 9q28 31 28 62q0 50 -63 77z" />
<glyph unicode="&#xa8;" horiz-adv-x="353" d="M-2 637q0 32 23 54t56 22q34 0 57.5 -23.5t23.5 -56.5t-23.5 -56t-57.5 -23q-35 0 -57 24t-22 59zM196 634q0 33 23 56t57 23q31 0 55 -23t24 -57q0 -31 -22 -55t-56 -24q-33 0 -57 23t-24 57z" />
<glyph unicode="&#xa9;" horiz-adv-x="872" d="M58 362q0 74 29 144t82.5 123.5t123.5 82t143 28.5q76 0 144 -28t122.5 -82.5t83 -124.5t28.5 -143q0 -76 -28 -144t-82.5 -122.5t-124 -83t-143.5 -28.5q-76 0 -143.5 27.5t-151 111t-83.5 239.5zM122 362q0 -64 24 -122t69.5 -104t102 -69.5t118.5 -23.5t119 23.5 t102.5 69.5t69 104t23.5 122q0 131 -68.5 201.5t-126 94t-119.5 23.5t-118.5 -23.5t-126 -93t-69.5 -202.5zM530 512l-1 36h66v-66q0 -33 1 -65h-72l-2 9q-12 38 -39.5 50t-46.5 12q-33 0 -57.5 -26.5t-27 -54t-3 -38t-0.5 -15.5q0 -59 23.5 -89.5t64.5 -30.5q12 0 46 8.5 t46 68.5l2 13l78 -19q-5 -58 -53.5 -97.5t-122.5 -39.5h-12q-6 0 -49.5 6.5t-87.5 58t-44 125.5v18q0 8 7.5 45.5t48 77t79 46.5t54.5 7q58 0 95 -34z" />
<glyph unicode="&#xaa;" horiz-adv-x="458" d="M34 333h390v-86h-390v86zM261 578v29q0 52 -49 59h-24q-36 -6 -48 -33l-3 -7l-98 10q12 46 56 72t121 26l33 -2q70 -7 100 -36.5t30 -87.5v-145l45 2v-83l-40 1q-30 0 -61 -0.5t-62 -0.5v31l-11 -7q-13 -8 -23 -12.5t-23 -9t-27 -6.5t-26 -2q-51 0 -83 31t-32 79 q0 47 37 79t96 32q27 0 55 -7l16 -4l11 -4zM261 518l-8 4l-28 12q-12 3 -22 3q-23 0 -37 -14t-14 -36q0 -21 13 -33t34 -12q13 0 27 6l28 17l7 6v47z" />
<glyph unicode="&#xab;" horiz-adv-x="424" d="M14 277l175 283h53l-94 -280l97 -280h-49zM179 277l175 283h53l-94 -280l97 -280h-49z" />
<glyph unicode="&#xac;" horiz-adv-x="620" d="M34 360v126h552v-270h-96v144h-456z" />
<glyph unicode="&#xad;" horiz-adv-x="305" d="M8 189v129h289v-129h-289z" />
<glyph unicode="&#xae;" horiz-adv-x="872" d="M58 362q0 74 29 144t82.5 123.5t123.5 82t143 28.5q76 0 144 -28t122.5 -82.5t83 -124.5t28.5 -143q0 -76 -28 -144t-82.5 -122.5t-124 -83t-143.5 -28.5q-76 0 -143.5 27.5t-151 111t-83.5 239.5zM122 362q0 -64 24 -122t69.5 -104t102 -69.5t118.5 -23.5t119 23.5 t102.5 69.5t69 104t23.5 122q0 131 -68.5 201.5t-126 94t-119.5 23.5t-118.5 -23.5t-126 -93t-69.5 -202.5zM261 175v65l38 -1v243l-38 -1v65l89 -2l30 1l70 1q75 0 112.5 -27t37.5 -78q0 -59 -52 -86l-11 -5l62 -111l34 1v-65l-27 1h-27l-58 -1l-78 160h-43v-96l37 1v-65 l-86 2zM400 394l10 -1h21q55 0 59 19.5t4 28.5q0 42 -62 42h-21l-11 -1v-88z" />
<glyph unicode="&#xaf;" horiz-adv-x="360" d="M0 569v98h360v-98h-360z" />
<glyph unicode="&#x2c9;" horiz-adv-x="360" d="M0 569v98h360v-98h-360z" />
<glyph unicode="&#xb0;" horiz-adv-x="351" d="M34 593q0 57 41 100q43 41 101 41q57 0 100 -41q41 -43 41 -100q0 -58 -41 -100t-100 -42q-60 0 -101 41t-41 101zM83 593q0 -38 26.5 -65.5t66.5 -27.5q38 0 65.5 27t27.5 65q0 39 -20.5 59.5t-37 27.5t-35.5 7q-39 0 -66 -27t-27 -66z" />
<glyph unicode="&#xb2;" horiz-adv-x="418" d="M19 266l1 20q8 56 36 91t93 68l30 15l21 10l11 6q35 22 49 41.5t14 43.5q0 29 -25 48.5t-69 19.5h-12q-9 -2 -25.5 -4t-34 -13t-26.5 -30l24 3l15 -4q27 -11 27 -39q0 -20 -14.5 -35.5t-42.5 -15.5q-12 0 -37.5 6t-25.5 58q0 21 14 50t57 51.5t105 22.5h30q13 -3 31 -5.5 t39.5 -11.5t41 -24.5t30.5 -38t11 -48.5q0 -29 -14.5 -53.5t-33 -35.5t-36.5 -19t-35 -14l-5 -2l-60 -18l-25 -9q-44 -16 -64 -30t-32 -38l16 8q38 19 73 19q25 0 61 -9l18 -5l15 -4l13 -3q4 -1 13 -1q26 0 41.5 13t15.5 35l1 20h45v-21q0 -122 -105 -122q-40 0 -97 21 l-16 6q-36 12 -60 12q-33 0 -49 -28l-3 -7h-45z" />
<glyph unicode="&#xb3;" horiz-adv-x="418" d="M85 343q20 -23 57 -30l15 -3q7 -1 19 -1q38 0 64 16.5t31.5 34.5t5.5 27q0 31 -27 52t-76 21h-10v44h11q44 0 65.5 14.5t25.5 43.5q1 6 1 11q0 27 -21 45q-24 21 -75 21q-28 0 -48 -7.5t-32 -22.5q14 2 26 -4l11 -6q17 -12 17 -33q0 -20 -13 -31.5t-31 -14.5 q-5 -1 -10 -1q-22 0 -38.5 16t-16.5 39q0 5 1 10l4 17q13 38 53 61t104 23h22q9 0 35 -4t48.5 -12t48.5 -28.5t26 -65.5q0 -38 -18.5 -53.5t-30.5 -22.5t-23 -10l-13 -3l9 -3q11 -4 26 -11.5t39 -24.5t24 -67q0 -22 -10.5 -44t-27 -34.5t-30.5 -19t-35 -12.5l-35 -6 q-29 -3 -53 -3q-57 0 -97 15.5t-56 35.5t-20.5 33t-4.5 29q0 21 9 37t24.5 22.5t26.5 6.5q20 0 35 -12t18 -31q1 -6 1 -11q0 -35 -42 -42z" />
<glyph unicode="&#xb4;" horiz-adv-x="261" d="M33 608l169 145l58 -79l-189 -119z" />
<glyph unicode="&#xb6;" horiz-adv-x="617" d="M245 720h335v-72h-335q-58 0 -99 -42t-41 -101q0 -57 41 -98t98 -41h63v228h78v-594h-140v68l62 -2v228h-62q-87 0 -149 62t-62 151q0 88 61.5 150.5t149.5 62.5zM445 0v594h78l-1 -529l61 3v-67z" />
<glyph unicode="&#xb7;" horiz-adv-x="291" d="M53 249q0 36 26 62t66 26t66.5 -25t26.5 -59q0 -35 -28 -59t-66 -24q-39 0 -65 23t-26 56z" />
<glyph unicode="&#x2219;" horiz-adv-x="291" d="M53 249q0 36 26 62t66 26t66.5 -25t26.5 -59q0 -35 -28 -59t-66 -24q-39 0 -65 23t-26 56z" />
<glyph unicode="&#xb8;" horiz-adv-x="172" d="M-2 -198l14 39l12 -2h6q2 0 6 -1q7 0 26 4t27 14t8 18q0 17 -13 23t-22.5 8t-22.5 2h-23l35 116h45l-15 -69q6 2 19 2q23 0 48.5 -16.5t25.5 -55.5q0 -27 -19.5 -47.5t-44.5 -31t-59 -10.5q-18 0 -29 1t-24 6z" />
<glyph unicode="&#xb9;" horiz-adv-x="418" d="M89 576v48h26l17 1q43 8 64 41l5 8h67v-324q0 -18 3 -23.5t13 -7.5h5h43v-53h-241v53h44h7q16 0 20.5 5.5t4.5 25.5v25v201h-78z" />
<glyph unicode="&#xba;" horiz-adv-x="448" d="M34 333h379l1 -86h-379zM35 553q0 71 42.5 119.5t84 54t49 6t13.5 0.5h15q10 -2 50 -7.5t82 -52.5t42 -120q0 -71 -42.5 -118.5t-83 -53.5t-49.5 -6.5t-14 -0.5h-11q-6 0 -49.5 6.5t-86 54t-42.5 118.5zM156 553l2 -18q4 -36 15 -51t23.5 -21t27.5 -6q32 0 49.5 26 t17.5 72q0 12 -2 30t-11.5 34.5t-24.5 24t-29 7.5t-28.5 -7.5t-24.5 -24t-13 -46.5z" />
<glyph unicode="&#xbb;" horiz-adv-x="424" d="M14 560h49l182 -280l-175 -280h-53l94 277zM179 560h49l182 -280l-175 -280h-53l94 277z" />
<glyph unicode="&#xbf;" horiz-adv-x="544" d="M196 650q0 33 27 56t68 23q16 0 33 -6.5t30.5 -18t20 -26.5t6.5 -33q0 -32 -25.5 -57.5t-66.5 -25.5t-67 26t-26 62zM249 509h87q2 -7 2 -15v-14q0 -42 -11 -73t-41 -69l-37 -43l-38 -47q-25 -35 -25 -73q0 -35 22 -61t54.5 -34.5t58.5 -8.5h12q8 2 54 8t63 75 q-18 -14 -42 -14q-15 0 -34 8t-31 26t-12 41q0 32 24 58t69 26q18 0 42.5 -7t46 -37.5t21.5 -74.5q0 -19 -11.5 -64t-91 -86t-199.5 -41q-103 0 -163.5 54.5t-60.5 129.5q0 57 33.5 97t134.5 101l15 10q31 25 44.5 50t13.5 58v20z" />
<glyph unicode="&#xc0;" horiz-adv-x="825" d="M-17 0v88h27h7l7 1q19 2 30.5 12.5t23.5 38.5l240 580h200l230 -580q12 -31 23 -40t38 -12h6h27v-88h-370v88h71q25 0 25 14q0 5 -1 8l-12 30l-38 95h-276l-39 -95q-4 -10 -7.5 -20.5t-3.5 -16.5q0 -15 26 -15h75v-88h-309zM277 325h206l-102 262zM287 891l63 75 l156 -154l-41 -47z" />
<glyph unicode="&#xc1;" horiz-adv-x="825" d="M-17 0v88h27h7l7 1q19 2 30.5 12.5t23.5 38.5l240 580h200l230 -580q12 -31 23 -40t38 -12h6h27v-88h-370v88h71q25 0 25 14q0 5 -1 8l-12 30l-38 95h-276l-39 -95q-4 -10 -7.5 -20.5t-3.5 -16.5q0 -15 26 -15h75v-88h-309zM277 325h206l-102 262zM315 819l169 145 l58 -79l-189 -119z" />
<glyph unicode="&#xc2;" horiz-adv-x="825" d="M-17 0v88h27h7l7 1q19 2 30.5 12.5t23.5 38.5l240 580h200l230 -580q12 -31 23 -40t38 -12h6h27v-88h-370v88h71q25 0 25 14q0 5 -1 8l-12 30l-38 95h-276l-39 -95q-4 -10 -7.5 -20.5t-3.5 -16.5q0 -15 26 -15h75v-88h-309zM277 325h206l-102 262zM243 795l124 146h90 l124 -146l-32 -30l-137 94l-137 -94z" />
<glyph unicode="&#xc3;" horiz-adv-x="825" d="M-17 0v88h27h7l7 1q19 2 30.5 12.5t23.5 38.5l240 580h200l230 -580q12 -31 23 -40t38 -12h6h27v-88h-370v88h71q25 0 25 14q0 5 -1 8l-12 30l-38 95h-276l-39 -95q-4 -10 -7.5 -20.5t-3.5 -16.5q0 -15 26 -15h75v-88h-309zM277 325h206l-102 262zM230 780l2 20 q21 113 115 113q30 0 65 -13l37 -13l8 -4q36 -14 56 -14q33 0 45 35l2 9h35v-26q-4 -50 -31.5 -77t-70.5 -27q-26 0 -59 11l-39 13l-6 2q-47 18 -73 18q-37 0 -49 -40l-1 -7h-36z" />
<glyph unicode="&#xc4;" horiz-adv-x="825" d="M-17 0v88h27h6l7 1q34 0 55 51l241 580h199l230 -580q12 -31 23 -40t38 -12h6h27v-88h-370v88h71q25 0 25 14q0 5 -1 8l-2 5l-10 25l-39 95h-275l-39 -95q-4 -10 -7.5 -20.5t-3.5 -16.5q0 -15 26 -15h75v-88h-309zM277 325h206l-102 256zM232 826q0 34 24 56.5t57 22.5 t56.5 -23.5t23.5 -57.5t-24 -58t-57 -24q-34 0 -51 18t-23 34t-6 32zM449 825q0 33 23 56.5t57 23.5q33 0 57 -23t24 -59q0 -33 -22 -55q-23 -26 -59 -26q-32 0 -56 23.5t-24 59.5z" />
<glyph unicode="&#xc5;" horiz-adv-x="825" d="M-17 0v88h27h7l7 1q19 2 30.5 12.5t23.5 38.5l240 580l43 2q-26 14 -40 40t-14 55q0 43 31 75.5t78 32.5q45 0 76 -31q35 -32 35 -80q0 -15 -4 -27t-13 -31t-36 -36h44l230 -580q12 -31 23 -40t38 -12h6h27v-88h-370v88h71q25 0 25 14q0 5 -1 8l-2 5l-10 25l-39 95h-275 l-39 -95q-4 -10 -7.5 -20.5t-3.5 -16.5q0 -15 26 -15h75v-88h-309zM277 325h206l-102 256zM360 813q0 -23 16.5 -38.5t40.5 -15.5q23 0 38.5 16.5t15.5 38.5q0 24 -17 39t-39 15q-23 0 -39 -16t-16 -39z" />
<glyph unicode="&#xc6;" horiz-adv-x="1294" d="M-19 0v88h15h21q38 4 76 52l341 434l17 26q2 4 2 11q0 19 -21 19l-38 1h-32v89h907v-281h-96v38l-3 33q-25 120 -161 120h-207v-215h84q41 0 61.5 20.5t20.5 65.5v27h87v-319h-86v26l-1 16q-10 74 -80 74h-86v-236h197q80 0 121 31.5t52 99.5l2 31v39h94v-290h-775v88h74 h10q28 0 35 9t7 43v115h-288l-87 -115l-10 -13l-12 -17q-5 -8 -5 -12q0 -7 8 -9l16 -1h74v-88h-334zM392 340h228v294z" />
<glyph unicode="&#xc7;" horiz-adv-x="760" d="M638 658l27 62h86v-275h-100l-3 26q-14 86 -65 133t-131 47q-28 0 -82 -12t-97 -79.5t-43 -181.5q0 -29 6.5 -93t49 -122.5t91 -72t78.5 -13.5q71 0 123.5 46.5t65.5 122.5l3 32h102l-2 -41q-14 -113 -94 -182.5t-210 -69.5h-18l-9 -31q6 2 18 2q9 0 26 -3t34.5 -24.5 t17.5 -50.5q0 -12 -8 -35t-40.5 -44t-79.5 -21q-10 0 -22 0.5t-32 7.5l14 43l13 -3h13q5 0 11 1t20.5 4.5t23 14.5t8.5 20q0 19 -17.5 27t-42.5 8l-22 1l24 84l-42 4q-139 23 -224 124t-85 246q0 38 14.5 119.5t97 161.5t151.5 91t94 12t27 1q61 0 113 -16.5t93 -49.5z" />
<glyph unicode="&#xc8;" horiz-adv-x="818" d="M8 632v88h785v-276h-96v44q0 78 -46.5 112.5t-154.5 34.5h-171v-217h77q47 0 67.5 20.5t20.5 70.5v23h88v-320h-86v28q0 89 -85 89h-82v-239h176l32 1q86 0 125 39t39 123l1 41h95v-294h-785v88h74h11q29 0 37 9.5t8 42.5v36v404q0 33 -7.5 42.5t-34.5 9.5h-11h-77z M284 891l63 75l156 -154l-41 -47z" />
<glyph unicode="&#xc9;" horiz-adv-x="818" d="M8 632v88h785v-276h-96v44q0 78 -46.5 112.5t-154.5 34.5h-171v-217h77q47 0 67.5 20.5t20.5 70.5v23h88v-320h-86v28q0 89 -85 89h-82v-239h176l32 1q86 0 125 39t39 123l1 41h95v-294h-785v88h74h11q29 0 37 9.5t8 42.5v36v404q0 33 -7.5 42.5t-34.5 9.5h-11h-77z M312 819l169 145l58 -79l-189 -119z" />
<glyph unicode="&#xca;" horiz-adv-x="818" d="M8 632v88h785v-276h-96v44q0 78 -46.5 112.5t-154.5 34.5h-171v-217h77q47 0 67.5 20.5t20.5 70.5v23h88v-320h-86v28q0 89 -85 89h-82v-239h176l32 1q86 0 125 39t39 123l1 41h95v-294h-785v88h74h11q29 0 37 9.5t8 42.5v36v404q0 33 -7.5 42.5t-34.5 9.5h-11h-77z M240 795l124 146h90l124 -146l-32 -30l-137 94l-137 -94z" />
<glyph unicode="&#xcb;" horiz-adv-x="818" d="M8 632v88h785v-276h-96v44q0 78 -46.5 112.5t-154.5 34.5h-171v-217h77q47 0 67.5 20.5t20.5 70.5v23h88v-320h-86v28q0 89 -85 89h-82v-239h176l32 1q86 0 125 39t39 123l1 41h95v-294h-785v88h74h11q29 0 37 9.5t8 42.5v36v404q0 33 -7.5 42.5t-34.5 9.5h-11h-77z M231 848q0 32 23 54t56 22q34 0 57.5 -23.5t23.5 -56.5t-23.5 -56t-57.5 -23q-35 0 -57 24t-22 59zM429 845q0 33 23 56t57 23q31 0 55 -23t24 -57q0 -31 -22 -55t-56 -24q-33 0 -57 23t-24 57z" />
<glyph unicode="&#xcc;" horiz-adv-x="460" d="M8 632v88h444v-88h-76h-9l-14 -2q-19 -2 -23.5 -16t-4.5 -35l-1 -439q0 -34 6.5 -43t32.5 -9h11h78v-88h-443v88h74h11q27 0 35 10t8 42v34l1 405q0 33 -7.5 42.5t-34.5 9.5l-10 1h-78zM105 891l63 75l156 -154l-41 -47z" />
<glyph unicode="&#xcd;" horiz-adv-x="460" d="M8 632v88h444v-88h-76h-9l-14 -2q-19 -2 -23.5 -16t-4.5 -35l-1 -439q0 -34 6.5 -43t32.5 -9h11h78v-88h-443v88h74h11q27 0 35 10t8 42v34l1 405q0 33 -7.5 42.5t-34.5 9.5l-10 1h-78zM133 819l169 145l58 -79l-189 -119z" />
<glyph unicode="&#xce;" horiz-adv-x="460" d="M8 632v88h444v-88h-76h-9l-14 -2q-19 -2 -23.5 -16t-4.5 -35l-1 -439q0 -34 6.5 -43t32.5 -9h11h78v-88h-443v88h74h11q27 0 35 10t8 42v34l1 405q0 33 -7.5 42.5t-34.5 9.5l-10 1h-78zM61 795l124 146h90l124 -146l-32 -30l-137 94l-137 -94z" />
<glyph unicode="&#xcf;" horiz-adv-x="460" d="M8 632v88h444v-88h-76h-9l-14 -2q-19 -2 -23.5 -16t-4.5 -35l-1 -439q0 -34 6.5 -43t32.5 -9h11h78v-88h-443v88h74h11q27 0 35 10t8 42v34l1 405q0 33 -7.5 42.5t-34.5 9.5l-10 1h-78zM52 848q0 32 23 54t56 22q34 0 57.5 -23.5t23.5 -56.5t-23.5 -56t-57.5 -23 q-35 0 -57 24t-22 59zM250 845q0 33 23 56t57 23q31 0 55 -23t24 -57q0 -31 -22 -55t-56 -24q-33 0 -57 23t-24 57z" />
<glyph unicode="&#xd1;" horiz-adv-x="926" d="M8 0v88h87q26 0 33.5 9.5t7.5 42.5v439q0 32 -6.5 41.5t-30.5 11.5h-8h-83v88h330l357 -514v374l-1 14q0 20 -6 27.5t-21 9.5l-8 1h-79v88h338v-88h-78q-25 0 -32 -7t-7 -33l-1 -12v-580h-176l-380 548l1 -408q0 -34 7 -43t31 -9h79v-88h-354zM281 780l2 20 q21 113 115 113q30 0 65 -13l37 -13l8 -4q36 -14 56 -14q33 0 45 35l2 9h35v-26q-4 -50 -31.5 -77t-70.5 -27q-26 0 -59 11l-39 13l-6 2q-47 18 -73 18q-37 0 -49 -40l-1 -7h-36z" />
<glyph unicode="&#xd2;" horiz-adv-x="858" d="M25 366q0 170 108 274t296 104t296 -105t108 -276q0 -170 -108 -274t-296 -104t-296 104t-108 277zM222 366q0 -123 44.5 -198t92.5 -87t72 -12q88 0 146.5 78t58.5 219q0 138 -59 215.5t-147 77.5q-23 0 -70.5 -12t-92.5 -87t-45 -194zM304 891l63 75l156 -154l-41 -47z " />
<glyph unicode="&#xd3;" horiz-adv-x="858" d="M25 366q0 170 108 274t296 104t296 -105t108 -276q0 -170 -108 -274t-296 -104t-296 104t-108 277zM222 366q0 -123 44.5 -198t92.5 -87t72 -12q88 0 146.5 78t58.5 219q0 138 -59 215.5t-147 77.5q-23 0 -70.5 -12t-92.5 -87t-45 -194zM332 819l169 145l58 -79 l-189 -119z" />
<glyph unicode="&#xd4;" horiz-adv-x="858" d="M25 366q0 170 108 274t296 104t296 -105t108 -276q0 -170 -108 -274t-296 -104t-296 104t-108 277zM222 366q0 -123 44.5 -198t92.5 -87t72 -12q88 0 146.5 78t58.5 219q0 138 -59 215.5t-147 77.5q-23 0 -70.5 -12t-92.5 -87t-45 -194zM260 795l124 146h90l124 -146 l-32 -30l-137 94l-137 -94z" />
<glyph unicode="&#xd5;" horiz-adv-x="858" d="M25 366q0 170 108 274t296 104t296 -105t108 -276q0 -170 -108 -274t-296 -104t-296 104t-108 277zM222 366q0 -123 44.5 -198t92.5 -87t72 -12q88 0 146.5 78t58.5 219q0 138 -59 215.5t-147 77.5q-23 0 -70.5 -12t-92.5 -87t-45 -194zM247 780l2 20q21 113 115 113 q30 0 65 -13l37 -13l8 -4q36 -14 56 -14q33 0 45 35l2 9h35v-26q-4 -50 -31.5 -77t-70.5 -27q-26 0 -59 11l-39 13l-6 2q-47 18 -73 18q-37 0 -49 -40l-1 -7h-36z" />
<glyph unicode="&#xd6;" horiz-adv-x="858" d="M25 366q0 152 86 251t185 113t139 14q154 0 261 -80.5t120 -153t15 -98.5t2 -48q0 -169 -109 -272.5t-295 -103.5q-187 0 -295.5 104.5t-108.5 273.5zM222 366q0 -120 45 -195t92.5 -87t71.5 -12q77 0 133.5 63t64 136t7.5 102q0 133 -59 209.5t-147 76.5 q-23 0 -70.5 -12t-92.5 -87t-45 -194zM198 827q0 15 7 30.5t17.5 26t27 16.5t30.5 6q33 0 56.5 -23.5t23.5 -58.5q0 -32 -23.5 -56.5t-57.5 -24.5q-35 0 -52 18t-23 34t-6 32zM500 827q0 32 23.5 55.5t57.5 23.5q33 0 51 -17.5t24 -32.5t6 -32q0 -33 -23 -57t-58 -24 q-33 0 -57 24t-24 60z" />
<glyph unicode="&#xd7;" horiz-adv-x="0" />
<glyph unicode="&#x141;" horiz-adv-x="0" />
<glyph unicode="&#xfd;" horiz-adv-x="0" />
<glyph unicode="&#xd8;" horiz-adv-x="858" d="M653 685l69 79l46 -31l-66 -77q63 -40 97 -113t34 -177q0 -168 -107.5 -273.5t-287.5 -105.5q-41 0 -100 8.5t-128 39.5l-65 -80l-44 31l64 81q-69 47 -104.5 120.5t-35.5 178.5q0 151 86 250.5t186.5 113.5t140.5 14q63 0 116.5 -15t98.5 -44zM295 135q50 -63 135 -63 q22 0 69.5 12t92 86.5t44.5 195.5q0 97 -34 160zM571 586q-45 70 -135 70q-23 0 -71.5 -12t-93 -83.5t-44.5 -192.5q0 -58 8 -96.5t28 -76.5z" />
<glyph unicode="&#xd9;" horiz-adv-x="877" d="M6 632v88h409v-88h-61l-10 -1q-24 0 -31.5 -10.5t-7.5 -40.5v-316l1 -19q0 -94 40.5 -133.5t131.5 -39.5q164 0 164 167l1 30v311q0 34 -6 43t-29 9h-74v88h337v-88h-71h-9q-19 -2 -25.5 -12.5t-6.5 -39.5v-308q0 -152 -79.5 -221.5t-252.5 -69.5q-170 0 -239.5 67.5 t-69.5 216.5v315l-1 15q-2 22 -8 28.5t-25 8.5h-7h-71zM313 891l63 75l156 -154l-41 -47z" />
<glyph unicode="&#xda;" horiz-adv-x="877" d="M6 632v88h409v-88h-61l-10 -1q-24 0 -31.5 -10.5t-7.5 -40.5v-316l1 -19q0 -94 40.5 -133.5t131.5 -39.5q164 0 164 167l1 30v311q0 34 -6 43t-29 9h-74v88h337v-88h-71h-9q-19 -2 -25.5 -12.5t-6.5 -39.5v-308q0 -152 -79.5 -221.5t-252.5 -69.5q-170 0 -239.5 67.5 t-69.5 216.5v315l-1 15q-2 22 -8 28.5t-25 8.5h-7h-71zM341 819l169 145l58 -79l-189 -119z" />
<glyph unicode="&#xdb;" horiz-adv-x="877" d="M6 632v88h409v-88h-61l-10 -1q-24 0 -31.5 -10.5t-7.5 -40.5v-316l1 -19q0 -94 40.5 -133.5t131.5 -39.5q164 0 164 167l1 30v311q0 34 -6 43t-29 9h-74v88h337v-88h-71h-9q-19 -2 -25.5 -12.5t-6.5 -39.5v-308q0 -152 -79.5 -221.5t-252.5 -69.5q-170 0 -239.5 67.5 t-69.5 216.5v315l-1 15q-2 22 -8 28.5t-25 8.5h-7h-71zM269 795l124 146h90l124 -146l-32 -30l-137 94l-137 -94z" />
<glyph unicode="&#xdc;" horiz-adv-x="877" d="M6 632v88h409v-88h-61l-10 -1q-23 0 -30 -10t-7 -41v-316v-24q0 -90 40 -129t130 -39q84 0 124.5 40.5t40.5 126.5l1 30v311q0 34 -6 43t-29 9h-74v88h337v-88h-71h-9q-19 -2 -25.5 -12.5t-6.5 -39.5v-308q0 -152 -79.5 -221.5t-252.5 -69.5q-170 0 -239 68t-69 216v315 q0 29 -7 39.5t-28 12.5h-7h-71zM262 826q0 34 17.5 50.5t34 22.5t30.5 6q33 0 56.5 -23.5t23.5 -57.5q0 -32 -23.5 -57t-57.5 -25q-35 0 -52 18t-23 34t-6 32zM532 826q0 32 23.5 55.5t57.5 23.5q33 0 57 -24t24 -58q0 -31 -23.5 -56t-57.5 -25t-57.5 23.5t-23.5 60.5z" />
<glyph unicode="&#xdd;" horiz-adv-x="742" d="M333 857l169 145l58 -79l-189 -119zM-25 632v88h401v-88h-49l-26 -1q-14 -1 -14 -15q0 -8 5 -17l11 -19l113 -174l109 174l9 17q7 13 7 21q0 11 -17 14h-6h-55v88h304v-88h-26h-7h-7q-18 0 -28.5 -7t-29.5 -31l-10 -14l-194 -283v-157q0 -33 8 -42.5t38 -9.5h11h74v-88 h-448v88h75h10l17 1q18 0 25 11t7 40v32v120l-193 288q-21 31 -31.5 39.5t-32.5 11.5l-11 1h-39z" />
<glyph unicode="&#xdf;" horiz-adv-x="737" d="M17 0v80h49q23 0 31.5 10t8.5 39v42v372q0 91 65 144.5t195 53.5q47 0 78.5 -4.5t41 -6.5t49 -14t73 -54t33.5 -95q0 -45 -27.5 -87t-72.5 -60l23 -6q151 -46 151 -188q0 -12 -1 -25.5t-11 -62.5t-79.5 -97t-187.5 -48h-33q-25 3 -37 4l-33 5v84l26 -5q18 -2 27 -2 q6 0 14 1t63.5 8.5t66 62.5t10.5 70q0 57 -42.5 91t-119.5 34l-34 -2l-14 -2v108h21q63 0 94.5 29.5t31.5 84.5q0 48 -30 76t-83 28q-44 0 -69 -24t-25 -65v-8l-1 -28v-543h-252z" />
<glyph unicode="&#xe0;" horiz-adv-x="665" d="M155 424q41 -15 41 -58q0 -28 -21 -47t-53 -19q-7 1 -10 1q-31 3 -51 24t-20 50q0 11 11 44t82 61.5t202 28.5q10 0 20 -1l56 -8q46 -7 84.5 -46t38.5 -105v-201v-17v-16q0 -12 3.5 -20t10 -13t15.5 -5q12 0 18 10l6 20l4 43v18l1 16h64v-19q0 -97 -27.5 -137.5 t-94.5 -40.5q-112 0 -145 67l-6 15q-22 -33 -59.5 -53.5t-79 -26t-62.5 -5.5q-69 0 -110 30t-45.5 59.5t-5 38t-0.5 12.5q0 97 133 131l84 16l30 7q56 14 81 33t25 48q0 4 -0.5 10.5t-5 23.5t-26.5 31.5t-46.5 18t-38.5 3.5h-13q-54 0 -90 -22zM371 247q-21 -11 -35 -16.5 t-45 -14.5l-23 -8q-44 -14 -63 -30t-19 -39q0 -13 6 -29t24 -27t44 -11q11 0 23.5 2t35.5 14t37.5 40t14.5 75v44zM207 680l63 75l156 -154l-41 -47z" />
<glyph unicode="&#xe1;" horiz-adv-x="665" d="M155 424q41 -15 41 -58q0 -28 -21 -47t-53 -19q-7 1 -10 1q-31 3 -51 24t-20 50q0 11 11 44t82 61.5t202 28.5q10 0 20 -1l56 -8q46 -7 84.5 -46t38.5 -105v-201v-17v-16q0 -12 3.5 -20t10 -13t15.5 -5q12 0 18 10l6 20l4 43v18l1 16h64v-19q0 -97 -27.5 -137.5 t-94.5 -40.5q-112 0 -145 67l-6 15q-22 -33 -59.5 -53.5t-79 -26t-62.5 -5.5q-69 0 -110 30t-45.5 59.5t-5 38t-0.5 12.5q0 97 133 131l84 16l30 7q56 14 81 33t25 48q0 4 -0.5 10.5t-5 23.5t-26.5 31.5t-46.5 18t-38.5 3.5h-13q-54 0 -90 -22zM371 247q-21 -11 -35 -16.5 t-45 -14.5l-23 -8q-44 -14 -63 -30t-19 -39q0 -13 6 -29t24 -27t44 -11q11 0 23.5 2t35.5 14t37.5 40t14.5 75v44zM235 608l169 145l58 -79l-189 -119z" />
<glyph unicode="&#xe2;" horiz-adv-x="665" d="M155 424q41 -15 41 -58q0 -28 -21 -47t-53 -19q-7 1 -10 1q-31 3 -51 24t-20 50q0 11 11 44t82 61.5t202 28.5q10 0 20 -1l56 -8q46 -7 84.5 -46t38.5 -105v-201v-17v-16q0 -12 3.5 -20t10 -13t15.5 -5q12 0 18 10l6 20l4 43v18l1 16h64v-19q0 -97 -27.5 -137.5 t-94.5 -40.5q-112 0 -145 67l-6 15q-22 -33 -59.5 -53.5t-79 -26t-62.5 -5.5q-69 0 -110 30t-45.5 59.5t-5 38t-0.5 12.5q0 97 133 131l84 16l30 7q56 14 81 33t25 48q0 4 -0.5 10.5t-5 23.5t-26.5 31.5t-46.5 18t-38.5 3.5h-13q-54 0 -90 -22zM371 247q-21 -11 -35 -16.5 t-45 -14.5l-23 -8q-44 -14 -63 -30t-19 -39q0 -13 6 -29t24 -27t44 -11q11 0 23.5 2t35.5 14t37.5 40t14.5 75v44zM163 584l124 146h90l124 -146l-32 -30l-137 94l-137 -94z" />
<glyph unicode="&#xe3;" horiz-adv-x="665" d="M155 424q41 -15 41 -58q0 -28 -21 -47t-53 -19q-7 1 -10 1q-31 3 -51 24t-20 50q0 11 11 44t82 61.5t202 28.5q10 0 20 -1l56 -8q46 -7 84.5 -46t38.5 -105v-201v-17v-16q0 -12 3.5 -20t10 -13t15.5 -5q12 0 18 10l6 20l4 43v18l1 16h64v-19q0 -97 -27.5 -137.5 t-94.5 -40.5q-112 0 -145 67l-6 15q-22 -33 -59.5 -53.5t-79 -26t-62.5 -5.5q-69 0 -110 30t-45.5 59.5t-5 38t-0.5 12.5q0 97 133 131l84 16l30 7q56 14 81 33t25 48q0 4 -0.5 10.5t-5 23.5t-26.5 31.5t-46.5 18t-38.5 3.5h-13q-54 0 -90 -22zM371 247q-21 -11 -35 -16.5 t-45 -14.5l-23 -8q-44 -14 -63 -30t-19 -39q0 -13 6 -29t24 -27t44 -11q11 0 23.5 2t35.5 14t37.5 40t14.5 75v44zM150 569l2 20q21 113 115 113q30 0 65 -13l37 -13l8 -4q36 -14 56 -14q33 0 45 35l2 9h35v-26q-4 -50 -31.5 -77t-70.5 -27q-26 0 -59 11l-39 13l-6 2 q-47 18 -73 18q-37 0 -49 -40l-1 -7h-36z" />
<glyph unicode="&#xe4;" horiz-adv-x="669" d="M165 420q30 -10 35.5 -30.5t5.5 -30.5q0 -52 -37 -57t-47 -5q-33 0 -55.5 22.5t-22.5 56.5q0 53 72 91t220 38q104 0 153.5 -42t49.5 -118v-201v-12l1 -17q0 -23 9.5 -30.5t18.5 -7.5q12 0 18 10q4 11 6 20l4 43l1 18v16h64v-19q0 -97 -27.5 -137.5t-94.5 -40.5 q-112 0 -145 67l-6 15q-22 -33 -59 -53.5t-78.5 -26t-60.5 -5.5q-68 0 -112.5 31t-50.5 62.5t-6 46.5q0 97 134 131l5 1l83 15l28 7q59 14 83.5 32.5t24.5 47.5q0 7 -5 28t-26.5 35t-64.5 20l-35 2q-24 0 -44 -6t-39 -17zM375 247q-21 -11 -35 -16.5t-45 -14.5l-23 -8 q-29 -9 -38 -15q-43 -22 -43 -55q0 -10 5.5 -27t23.5 -28t44 -11q11 0 23.5 2t35.5 14t37.5 40t14.5 75v44zM119 638q0 33 23 55t56 22q32 0 56 -23t24 -57q0 -17 -5 -30.5t-23 -31.5t-52 -18q-35 0 -57 24t-22 59zM331 636q0 33 23 56t57 23q31 0 49.5 -16.5t24.5 -31 t6 -32.5q0 -33 -22.5 -56.5t-56.5 -23.5t-57.5 23.5t-23.5 57.5z" />
<glyph unicode="&#xe5;" horiz-adv-x="665" d="M155 420q41 -15 41 -58q0 -28 -21 -47t-53 -19q-7 1 -10 1q-31 3 -51 24t-20 50q0 11 11 44t82 61.5t202 28.5q10 0 20 -1l56 -8q46 -7 84.5 -46t38.5 -105v-201v-13v-16q0 -12 3.5 -20t10 -13t15.5 -5q12 0 18 10l6 20l4 43v18l1 16h64v-19q0 -97 -27.5 -137.5 t-94.5 -40.5q-112 0 -145 67l-6 15q-22 -33 -59.5 -53.5t-79 -26t-62.5 -5.5q-69 0 -110 30t-45.5 59.5t-5 38t-0.5 12.5q0 97 133 131l84 16l31 7q105 27 105 80q0 7 -5 28t-26.5 35t-64.5 20l-34 2q-30 0 -50.5 -5.5t-39.5 -17.5zM370 247q-23 -12 -35 -17t-44 -14l-23 -8 q-29 -9 -38 -15q-43 -22 -43 -54q0 -11 5.5 -28t23.5 -28t44 -11q11 0 23.5 2t35 14t37 40t14.5 75v44zM229 633q0 44 28.5 73.5t69.5 29.5q38 0 68 -29t30 -71q0 -38 -27.5 -68t-70.5 -30q-41 0 -69.5 28.5t-28.5 66.5zM277 635q0 -19 15 -33t35 -14q21 0 34.5 14.5 t13.5 34.5t-15.5 34t-34.5 14q-20 0 -34 -15t-14 -35z" />
<glyph unicode="&#xe6;" horiz-adv-x="937" d="M165 422q42 -11 42 -57q0 -53 -35 -59t-46 -6q-14 0 -32.5 5.5t-33.5 26t-15 47.5q0 26 17 52t60 46t88 25.5t60 5.5h23h30q55 0 90.5 -12t71.5 -38q60 40 101.5 44t50 4.5t18.5 0.5q114 0 184 -63t79 -170v-41h-378v-22q0 -66 38 -106t95 -40q9 0 57 8t72 86l4 16h106 q-2 -17 -7.5 -33t-25 -54t-77 -70.5t-136.5 -32.5q-64 0 -112.5 15t-73.5 36.5t-36 33.5t-22 26l-17 -18q-40 -40 -78 -60t-75 -26t-63 -6q-78 0 -123 38t-45 97q0 10 5 57t123 80l34 7l13 3l50 8l12 2q42 9 56 13.5t38.5 18t24.5 54.5q0 26 -18.5 46.5t-46.5 26.5t-38 6 h-17q-32 0 -52.5 -5t-39.5 -16zM373 248q-13 -7 -28.5 -13.5t-33.5 -11.5l-34 -10l-5 -2l-13 -5l-20 -7q-34 -15 -42 -33.5t-8 -29.5q0 -21 13.5 -37t30.5 -19t25 -3q22 0 50 10q17 9 41 30.5t24 64.5v66zM542 305h217v16q-5 54 -32 82t-71 28q-16 0 -35.5 -4t-43 -29.5 t-32.5 -67.5z" />
<glyph unicode="&#xe7;" horiz-adv-x="561" d="M432 399q-32 34 -89 34q-31 0 -67.5 -14t-58 -59.5t-21.5 -124.5q0 -75 29 -117t63 -49.5t52 -7.5q94 0 118 110l2 17h87l-3 -30q-13 -83 -70.5 -130.5t-152.5 -47.5l-19 -1l-7 -25q6 2 19 2q23 0 48.5 -17t25.5 -56q0 -26 -19.5 -46.5t-45 -31t-59.5 -10.5 q-17 0 -28 1.5t-24 5.5l13 39l13 -2q4 -1 12 -1q6 0 25.5 4t27.5 14.5t8 18.5q0 17 -13 22.5t-22.5 7.5t-22.5 2h-23l23 77l-14 2q-99 18 -156.5 86t-57.5 167q0 36 11.5 93.5t75.5 112t117 59.5t64.5 6t17.5 1q81 0 141.5 -33t77 -73t16.5 -63q0 -39 -24.5 -65.5 t-63.5 -26.5q-42 0 -70 22.5t-28 53.5q0 29 24 50l17 12q13 8 31 11z" />
<glyph unicode="&#xe8;" horiz-adv-x="587" d="M568 232h-380v-23q0 -56 28.5 -92t61 -44t52.5 -8q44 0 77.5 25.5t47.5 72.5l3 14h104q-13 -85 -81 -138t-171 -53h-35q-16 3 -71.5 10.5t-117 77.5t-61.5 173q0 116 78 191t204 75q114 0 187.5 -66.5t73.5 -174.5v-40zM191 305h220v15q0 53 -29.5 84.5t-73.5 31.5 q-15 0 -39 -6.5t-46.5 -35t-29.5 -69.5zM168 680l63 75l156 -154l-41 -47z" />
<glyph unicode="&#xe9;" horiz-adv-x="587" d="M568 232h-380v-23q0 -56 28.5 -92t61 -44t52.5 -8q44 0 77.5 25.5t47.5 72.5l3 14h104q-13 -85 -81 -138t-171 -53h-35q-16 3 -71.5 10.5t-117 77.5t-61.5 173q0 116 78 191t204 75q114 0 187.5 -66.5t73.5 -174.5v-40zM191 305h220v15q0 53 -29.5 84.5t-73.5 31.5 q-15 0 -39 -6.5t-46.5 -35t-29.5 -69.5zM196 608l169 145l58 -79l-189 -119z" />
<glyph unicode="&#xea;" horiz-adv-x="587" d="M568 232h-380v-23q0 -56 28.5 -92t61 -44t52.5 -8q44 0 77.5 25.5t47.5 72.5l3 14h104q-13 -85 -81 -138t-171 -53h-35q-16 3 -71.5 10.5t-117 77.5t-61.5 173q0 116 78 191t204 75q114 0 187.5 -66.5t73.5 -174.5v-40zM191 305h220v15q0 53 -29.5 84.5t-73.5 31.5 q-15 0 -39 -6.5t-46.5 -35t-29.5 -69.5zM124 584l124 146h90l124 -146l-32 -30l-137 94l-137 -94z" />
<glyph unicode="&#xeb;" horiz-adv-x="587" d="M568 232h-380v-23q0 -56 28.5 -92t61 -44t52.5 -8q44 0 77.5 25.5t47.5 72.5l3 14h104q-13 -85 -81 -138t-171 -53h-35q-16 3 -71.5 10.5t-117 77.5t-61.5 173q0 116 78 191t204 75q114 0 187.5 -66.5t73.5 -174.5v-40zM191 305h220v15q0 53 -29.5 84.5t-73.5 31.5 q-15 0 -39 -6.5t-46.5 -35t-29.5 -69.5zM115 637q0 32 23 54t56 22q34 0 57.5 -23.5t23.5 -56.5t-23.5 -56t-57.5 -23q-35 0 -57 24t-22 59zM313 634q0 33 23 56t57 23q31 0 55 -23t24 -57q0 -31 -22 -55t-56 -24q-33 0 -57 23t-24 57z" />
<glyph unicode="&#xec;" horiz-adv-x="372" d="M14 0v80h52q26 0 35 10t9 39v36v202q0 29 -8 39t-32 10h-53v82h256v-369v-18l1 -6q3 -25 34 -25h52v-80h-346zM61 680l63 75l156 -154l-41 -47z" />
<glyph unicode="&#xed;" horiz-adv-x="372" d="M14 0v80h52q26 0 35 10t9 39v36v202q0 29 -8 39t-32 10h-53v82h256v-369v-18l1 -6q3 -25 34 -25h52v-80h-346zM89 608l169 145l58 -79l-189 -119z" />
<glyph unicode="&#xee;" horiz-adv-x="372" d="M14 0v80h52q26 0 35 10t9 39v36v202q0 29 -8 39t-32 10h-53v82h256v-369v-18l1 -6q3 -25 34 -25h52v-80h-346zM17 584l124 146h90l124 -146l-32 -30l-137 94l-137 -94z" />
<glyph unicode="&#xef;" horiz-adv-x="372" d="M14 0v80h52q26 0 35 10t9 39v36v202q0 29 -8 39t-32 10h-53v82h256v-369v-18l1 -6q3 -25 34 -25h52v-80h-346zM8 637q0 32 23 54t56 22q34 0 57.5 -23.5t23.5 -56.5t-23.5 -56t-57.5 -23q-35 0 -57 24t-22 59zM206 634q0 33 23 56t57 23q31 0 55 -23t24 -57 q0 -31 -22 -55t-56 -24q-33 0 -57 23t-24 57z" />
<glyph unicode="&#xf1;" horiz-adv-x="731" d="M14 415v83h254v-71q54 65 114 73.5t88 8.5q90 0 130 -50.5t40 -156.5v-173l1 -10v-14q0 -25 29 -25h53v-80h-316v80h35h7q14 0 20 8t8 32v9v169v18q0 9 -2.5 31.5t-26.5 43.5t-58 21q-24 0 -71 -22t-47 -113v-148v-13l1 -11q0 -24 26 -24l9 -1h39v-80h-333v80h56 q24 0 31.5 9.5t7.5 39.5v25v213v18l-1 5q0 25 -35 25h-59zM183 569l2 20q21 113 115 113q30 0 65 -13l37 -13l8 -4q36 -14 56 -14q33 0 45 35l2 9h35v-26q-4 -50 -31.5 -77t-70.5 -27q-26 0 -59 11l-39 13l-6 2q-47 18 -73 18q-37 0 -49 -40l-1 -7h-36z" />
<glyph unicode="&#xf2;" horiz-adv-x="643" d="M25 250q0 115 79.5 188t213.5 73q27 0 89.5 -7.5t126 -62t74 -110.5t10.5 -86q0 -103 -66 -173.5t-136.5 -78.5t-97.5 -8q-135 0 -214 74t-79 191zM195 250l2 -40q7 -74 39.5 -111t84.5 -37q57 0 92.5 45.5t35.5 134.5q0 22 -5.5 70t-38 84.5t-84.5 36.5l-22 -2 q-43 -8 -69 -43t-33 -100zM196 680l63 75l156 -154l-41 -47z" />
<glyph unicode="&#xf3;" horiz-adv-x="643" d="M25 250q0 115 79.5 188t213.5 73q27 0 89.5 -7.5t126 -62t74 -110.5t10.5 -86q0 -103 -66 -173.5t-136.5 -78.5t-97.5 -8q-135 0 -214 74t-79 191zM195 250l2 -40q7 -74 39.5 -111t84.5 -37q57 0 92.5 45.5t35.5 134.5q0 22 -5.5 70t-38 84.5t-84.5 36.5l-22 -2 q-43 -8 -69 -43t-33 -100zM224 608l169 145l58 -79l-189 -119z" />
<glyph unicode="&#xf4;" horiz-adv-x="643" d="M25 250q0 115 79.5 188t213.5 73q27 0 89.5 -7.5t126 -62t74 -110.5t10.5 -86q0 -103 -66 -173.5t-136.5 -78.5t-97.5 -8q-135 0 -214 74t-79 191zM195 250l2 -40q7 -74 39.5 -111t84.5 -37q57 0 92.5 45.5t35.5 134.5q0 22 -5.5 70t-38 84.5t-84.5 36.5l-22 -2 q-43 -8 -69 -43t-33 -100zM152 584l124 146h90l124 -146l-32 -30l-137 94l-137 -94z" />
<glyph unicode="&#xf5;" horiz-adv-x="643" d="M25 250q0 115 79.5 188t213.5 73q27 0 89.5 -7.5t126 -62t74 -110.5t10.5 -86q0 -103 -66 -173.5t-136.5 -78.5t-97.5 -8q-135 0 -214 74t-79 191zM195 250l2 -40q7 -74 39.5 -111t84.5 -37q57 0 92.5 45.5t35.5 134.5q0 22 -5.5 70t-38 84.5t-84.5 36.5l-22 -2 q-43 -8 -69 -43t-33 -100zM139 569l2 20q21 113 115 113q30 0 65 -13l37 -13l8 -4q36 -14 56 -14q33 0 45 35l2 9h35v-26q-4 -50 -31.5 -77t-70.5 -27q-26 0 -59 11l-39 13l-6 2q-47 18 -73 18q-37 0 -49 -40l-1 -7h-36z" />
<glyph unicode="&#xf6;" horiz-adv-x="643" d="M25 246q0 114 79.5 187.5t212.5 73.5q13 0 27.5 -1.5t77.5 -8.5t129.5 -77.5t66.5 -171.5q0 -29 -11.5 -84.5t-74.5 -110t-125 -61.5t-89 -7q-135 0 -214 73t-79 188zM195 245l2 -37q8 -72 40 -109t84 -37q51 0 84 37t41 109v75q-8 73 -40.5 109.5t-84.5 36.5l-22 -2 q-44 -9 -69.5 -43.5t-32.5 -100.5zM136 631q0 32 22.5 54.5t54.5 22.5q36 0 59 -23t23 -56q0 -17 -5 -30.5t-18 -25.5q-22 -24 -55 -24t-57 24t-24 58zM347 627q0 35 23 58t59 23q31 0 54.5 -23.5t23.5 -56.5q0 -32 -23 -55.5t-59 -23.5q-32 0 -55 23t-23 55z" />
<glyph unicode="&#xf8;" horiz-adv-x="643" d="M497 463l39 37h67l-65 -66q37 -32 58.5 -80.5t21.5 -108.5q0 -114 -80 -187t-216 -73q-99 0 -167 39l-41 -40l-70 1l67 68l-7 7l-10 10q-70 75 -70 172q0 12 2 27.5t12 69.5t87.5 111t194.5 57q13 0 21 -0.5t53 -5.5t103 -38zM232 108q17 -24 41.5 -34t46.5 -10 q53 0 89.5 45.5t36.5 124.5l-2 43l-6 50zM418 380l-13 13q-37 32 -74 32q-27 0 -52.5 -12.5t-40.5 -33t-23 -46.5t-11 -45t-3 -41q0 -29 6 -62l5 -25z" />
<glyph unicode="&#xf9;" horiz-adv-x="717" d="M8 417v81h248v-302q0 -27 3.5 -50.5t26.5 -42.5t55 -19q27 0 51 12t41 32t22.5 39.5t5.5 56.5v142q0 29 -8 39t-33 10h-52v83h256v-369q0 -30 7.5 -39.5t29.5 -9.5h48v-80h-244v69l-12 -13q-56 -59 -106 -63t-61.5 -5t-17.5 -1q-93 0 -134 50t-41 159v172v21l-2 11 q-5 17 -24 17h-59zM233 680l63 75l156 -154l-41 -47z" />
<glyph unicode="&#xfa;" horiz-adv-x="717" d="M8 417v81h248v-302q0 -27 3.5 -50.5t26.5 -42.5t55 -19q27 0 51 12t41 32t22.5 39.5t5.5 56.5v142q0 29 -8 39t-33 10h-52v83h256v-369q0 -30 7.5 -39.5t29.5 -9.5h48v-80h-244v69l-12 -13q-56 -59 -106 -63t-61.5 -5t-17.5 -1q-93 0 -134 50t-41 159v172v21l-2 11 q-5 17 -24 17h-59zM261 608l169 145l58 -79l-189 -119z" />
<glyph unicode="&#xfb;" horiz-adv-x="717" d="M8 417v81h248v-302q0 -27 3.5 -50.5t26.5 -42.5t55 -19q27 0 51 12t41 32t22.5 39.5t5.5 56.5v142q0 29 -8 39t-33 10h-52v83h256v-369q0 -30 7.5 -39.5t29.5 -9.5h48v-80h-244v69l-12 -13q-56 -59 -106 -63t-61.5 -5t-17.5 -1q-93 0 -134 50t-41 159v172v21l-2 11 q-5 17 -24 17h-59zM189 584l124 146h90l124 -146l-32 -30l-137 94l-137 -94z" />
<glyph unicode="&#xfc;" horiz-adv-x="717" d="M8 417v81h248v-302q0 -27 3.5 -50.5t26.5 -42.5t55 -19q27 0 51 12t41 32t22.5 39.5t5.5 56.5v142q0 29 -8 39t-33 10h-52v83h255v-369q0 -30 7.5 -39.5t30.5 -9.5h48v-80h-249v69l-12 -13q-58 -60 -107.5 -64t-59 -4.5t-15.5 -0.5q-92 0 -132 50t-40 159v172v21l-2 11 q-5 17 -25 17h-59zM143 639q0 33 23 55t56 22q32 0 56.5 -23.5t24.5 -57.5q0 -33 -23.5 -56t-57.5 -23t-56.5 24.5t-22.5 58.5zM353 636q0 33 23.5 56.5t56.5 23.5t56.5 -23t23.5 -57q0 -33 -22 -55q-22 -25 -57 -25q-33 0 -57 23t-24 57z" />
<glyph unicode="&#xff;" horiz-adv-x="634" d="M91 -153q17 -16 43 -16q25 0 49 16.5t44 50.5l8 14l8 15l26 53l-194 388l-6 12l-6 11q-12 20 -33 23l-6 1h-8h-34v83h349v-80h-53l-13 -1q-18 0 -18 -16q0 -6 5 -19l6 -13l104 -213l108 213l6 13l5 11q2 3 2 9q0 16 -30 16h-52v80h252v-80l-8 -1l-25 -1q-18 -3 -32 -25 l-9 -14l-5 -10l-230 -436l-17 -31q-23 -38 -43 -62t-55.5 -50.5t-98.5 -26.5q-49 0 -88.5 24t-50.5 55.5t-11 51.5q0 38 22.5 66.5t43.5 32t32 3.5q34 0 57.5 -21.5t23.5 -52.5q0 -7 -3.5 -31.5t-51.5 -39.5zM139 637q0 32 23 54t56 22q34 0 57.5 -23.5t23.5 -56.5 t-23.5 -56t-57.5 -23q-35 0 -57 24t-22 59zM337 634q0 33 23 56t57 23q31 0 55 -23t24 -57q0 -31 -22 -55t-56 -24q-33 0 -57 23t-24 57z" />
<glyph unicode="&#x152;" horiz-adv-x="1293" d="M704 720h564v-282h-96l-1 48q0 15 -12 78.5t-146 63.5h-212v-215h79q87 0 87 87l1 26h86v-317h-85v30l-2 19q-7 35 -28 50.5t-62 15.5h-75v-235h196q174 0 174 151l2 51h94v-291h-552q-111 0 -177 -6t-100 -6q-192 0 -304 97t-112 255q0 59 26 157.5t141.5 162 t326.5 63.5l81 -3h106zM617 515q0 69 -39 101t-128 32q-100 0 -160.5 -73t-60.5 -210v-29q0 -11 13 -141t203 -130h23q11 2 28 3.5t38 10.5q51 18 67 45t16 96v295z" />
<glyph unicode="&#x153;" horiz-adv-x="1005" d="M525 436q11 10 19 16t24 17q52 31 93 36t63 5q109 0 181 -65t81 -169v-42l-375 -1l-1 -26q0 -62 39 -102t95 -40q16 0 57 7.5t71 88.5l5 14h104q-12 -83 -80.5 -136.5t-171.5 -53.5h-16q-6 0 -14 1t-58 6t-113 65q-65 -56 -127.5 -64.5t-94.5 -8.5q-127 0 -204 74 t-77 186q0 117 78 189t214 72q134 0 208 -69zM195 250l1 -34q0 -62 25.5 -100t54.5 -46t44 -8q53 0 87 50t34 143l-3 34q-4 41 -16.5 69.5t-38.5 50.5t-66 22q-27 0 -50.5 -12.5t-37 -33.5t-21 -44t-11.5 -57zM611 305l218 -2v15q0 19 -4.5 34t-24 47t-76.5 32 q-51 0 -83 -41q-21 -30 -27 -66z" />
<glyph unicode="&#x178;" horiz-adv-x="742" d="M-25 632v88h401v-88h-49l-26 -1q-14 -1 -14 -15q0 -8 5 -17l11 -19l113 -174l109 174l9 17q7 13 7 21q0 11 -17 14h-6h-55v88h304v-88h-26h-7h-7q-18 0 -28.5 -7t-29.5 -31l-10 -14l-194 -283v-157q0 -33 8 -42.5t38 -9.5h11h74v-88h-448v88h75h10l17 1q18 0 25 11t7 40 v32v120l-193 288q-21 31 -31.5 39.5t-32.5 11.5l-11 1h-39zM193 848q0 32 23 54t56 22q34 0 57.5 -23.5t23.5 -56.5t-23.5 -56t-57.5 -23q-35 0 -57 24t-22 59zM391 845q0 33 23 56t57 23q31 0 55 -23t24 -57q0 -31 -22 -55t-56 -24q-33 0 -57 23t-24 57z" />
<glyph unicode="&#x2c6;" horiz-adv-x="334" d="M-2 584l124 146h90l124 -146l-32 -30l-137 94l-137 -94z" />
<glyph unicode="&#x2dc;" horiz-adv-x="361" d="M-2 569l2 20q21 113 115 113q30 0 65 -13l37 -13l8 -4q36 -14 56 -14q33 0 45 35l2 9h35v-26q-4 -50 -31.5 -77t-70.5 -27q-26 0 -59 11l-39 13l-6 2q-47 18 -73 18q-37 0 -49 -40l-1 -7h-36z" />
<glyph unicode="&#x2000;" horiz-adv-x="501" />
<glyph unicode="&#x2001;" horiz-adv-x="1002" />
<glyph unicode="&#x2002;" horiz-adv-x="501" />
<glyph unicode="&#x2003;" horiz-adv-x="1002" />
<glyph unicode="&#x2004;" horiz-adv-x="334" />
<glyph unicode="&#x2005;" horiz-adv-x="250" />
<glyph unicode="&#x2006;" horiz-adv-x="167" />
<glyph unicode="&#x2007;" horiz-adv-x="167" />
<glyph unicode="&#x2008;" horiz-adv-x="125" />
<glyph unicode="&#x2009;" horiz-adv-x="200" />
<glyph unicode="&#x200a;" horiz-adv-x="55" />
<glyph unicode="&#x2010;" horiz-adv-x="305" d="M8 189v129h289v-129h-289z" />
<glyph unicode="&#x2011;" horiz-adv-x="305" d="M8 189v129h289v-129h-289z" />
<glyph unicode="&#x2013;" horiz-adv-x="698" d="M100 243v143h498v-143h-498z" />
<glyph unicode="&#x2014;" horiz-adv-x="555" d="M32 202v133h491v-133h-491z" />
<glyph unicode="&#x2018;" horiz-adv-x="246" d="M185 730l31 -53l-7 -4l-17 -10q-31 -19 -46 -35t-23 -35l15 3q38 0 59 -25q19 -20 19 -50q0 -34 -26 -58t-62 -24q-39 0 -69.5 30t-30.5 72q0 43 35 90.5t104 88.5z" />
<glyph unicode="&#x2019;" horiz-adv-x="246" d="M30 492l7 4l17 11q30 18 46.5 34.5t23.5 34.5l-16 -2h-8q-29 0 -48 21q-21 24 -21 52q0 35 26 59t61 24q39 0 69.5 -29t30.5 -73q0 -43 -34.5 -90.5t-103.5 -88.5l-18 -10z" />
<glyph unicode="&#x201a;" horiz-adv-x="246" d="M30 -84l7 5l17 10q34 21 48 35t22 35l-16 -3q-37 0 -57 22.5t-20 51.5q0 33 26 58t61 25q39 0 69.5 -29t30.5 -73q0 -43 -35 -91t-103 -88l-18 -10z" />
<glyph unicode="&#x201c;" horiz-adv-x="450" d="M185 730l31 -53l-7 -4l-17 -10q-31 -19 -46 -35t-23 -35l15 3q38 0 59 -25q19 -20 19 -50q0 -34 -26 -58t-62 -24q-39 0 -69.5 30t-30.5 72q0 43 35 90.5t104 88.5zM388 730l32 -53l-8 -4l-17 -10q-30 -19 -46 -35.5t-23 -34.5l15 3q38 0 58 -23t20 -51q0 -35 -26 -59 t-62 -24q-39 0 -69 29.5t-30 72.5t35 91t103 88z" />
<glyph unicode="&#x201d;" horiz-adv-x="450" d="M30 492l7 4l17 11q30 18 46.5 34.5t23.5 34.5l-16 -2h-8q-29 0 -48 21q-21 24 -21 52q0 35 26 59t61 24q39 0 69.5 -29t30.5 -73q0 -43 -34.5 -90.5t-103.5 -88.5l-18 -10zM233 492l7 4l17 11q32 19 47 34t23 35l-16 -2h-8q-29 0 -48 21q-21 24 -21 52q0 35 26 59t61 24 q39 0 69.5 -29t30.5 -73q0 -43 -34.5 -90.5t-103.5 -88.5l-18 -10z" />
<glyph unicode="&#x201e;" horiz-adv-x="450" d="M30 -84l7 5l17 10q34 21 48 35t22 35l-16 -3q-37 0 -57 22.5t-20 51.5q0 33 26 58t61 25q39 0 69.5 -29t30.5 -73q0 -43 -35 -91t-103 -88l-18 -10zM233 -84l7 5l17 10q34 21 48 35t22 35l-16 -3q-37 0 -57 22.5t-20 51.5q0 33 26 58t61 25q39 0 69.5 -29t30.5 -73 q0 -43 -35 -91t-103 -88l-18 -10z" />
<glyph unicode="&#x2022;" horiz-adv-x="351" d="M34 360q0 59 42 100t100 41q57 0 99 -41t42 -100q0 -60 -41 -100.5t-100 -40.5q-60 0 -101 41t-41 100z" />
<glyph unicode="&#x2026;" horiz-adv-x="799" d="M37 83q0 40 28 68t68 28t68 -28t28 -68q0 -41 -28 -68.5t-68 -27.5t-68 28t-28 68zM303 83q0 40 28 68t68 28t68.5 -28.5t28.5 -67.5q0 -41 -28.5 -68.5t-68.5 -27.5t-68 28t-28 68zM570 83q0 40 28 68t68 28t68 -28t28 -68t-28 -68t-68 -28t-68 28t-28 68z" />
<glyph unicode="&#x202f;" horiz-adv-x="200" />
<glyph unicode="&#x2039;" horiz-adv-x="259" d="M14 277l175 283h53l-94 -280l97 -280h-49z" />
<glyph unicode="&#x203a;" horiz-adv-x="259" d="M14 560h49l182 -280l-175 -280h-53l94 277z" />
<glyph unicode="&#x205f;" horiz-adv-x="250" />
<glyph unicode="&#x2122;" horiz-adv-x="879" d="M34 563v79q0 39 1 79h326l-1 -81v-38l1 -39h-59v90h-58l1 -253l42 1v-68h-178v68l43 -1v253h-58l-1 -90h-59zM373 653v68h165l61 -185q5 -14 8 -41l1 -19l6 41l2 8l4 12l61 184l40 -1h39l84 1l1 -68l-35 2v-255l35 1v-68h-162v68l36 -1v203v7l1 13l1 15l1 16l-3 -13 l-6 -17l-5 -17l-92 -274h-46l-89 271l-4 12l-3 9l-4 14l-3 15v-14l1 -16v-14v-10v-200l35 1v-68h-129v68l34 -1v255z" />
</font>
</defs>
</svg>
